<svg width="2560" height="1440" viewBox="0 0 2560 1440" fill="none" xmlns="http://www.w3.org/2000/svg">
<g id="fig2-fp" clip-path="url(#clip0)">
<g id="fig2-waves">
<g id="Vector" filter="url(#filter0_f)">
<path fill-rule="evenodd" clip-rule="evenodd" d="M2560 953.151L2453.33 988.998C2346.67 1024.84 2133.33 1095.3 1920 1060.69C1706.67 1024.84 1493.33 882.693 1280 810.999C1066.67 739.304 853.333 739.304 640 728.179C426.667 715.818 213.333 692.332 106.666 679.971L2.38419e-06 668.846V455H106.666C213.333 455 426.667 455 640 455C853.333 455 1066.67 455 1280 455C1493.33 455 1706.67 455 1920 455C2133.33 455 2346.67 455 2453.33 455H2560V953.151Z" fill="url(#paint0_linear)" fill-opacity="0.2"/>
</g>
<g id="Vector_2" filter="url(#filter1_f)">
<path fill-rule="evenodd" clip-rule="evenodd" d="M0 883.151L106.667 918.998C213.333 954.845 426.667 1025.3 640 990.692C853.333 954.845 1066.67 812.693 1280 740.999C1493.33 669.304 1706.67 669.304 1920 658.179C2133.33 645.818 2346.67 622.332 2453.33 609.971L2560 598.846V385H2453.33C2346.67 385 2133.33 385 1920 385C1706.67 385 1493.33 385 1280 385C1066.67 385 853.333 385 640 385C426.667 385 213.333 385 106.667 385H0V883.151Z" fill="url(#paint1_linear)" fill-opacity="0.2"/>
</g>
<g id="Vector_3" filter="url(#filter2_f)">
<path fill-rule="evenodd" clip-rule="evenodd" d="M0 571.619L106.667 542.592C213.333 513.565 426.667 456.511 640 484.537C853.333 513.565 1066.67 628.673 1280 686.728C1493.33 744.783 1706.67 744.783 1920 753.791C2133.33 763.801 2346.67 782.819 2453.33 792.828L2560 801.837V975H2453.33C2346.67 975 2133.33 975 1920 975C1706.67 975 1493.33 975 1280 975C1066.67 975 853.333 975 640 975C426.667 975 213.333 975 106.667 975H0V571.619Z" fill="url(#paint2_linear)" fill-opacity="0.7"/>
</g>
<path id="fig2-wave5" class="fig2-wave5" fill-rule="evenodd" clip-rule="evenodd" d="M0 837.633L106.667 845.748C213.333 853.862 426.667 869.28 640 900.115C853.333 931.761 1066.67 978.014 1280 993.432C1493.33 1009.66 1706.67 993.432 1920 970.711C2133.33 947.179 2346.67 915.532 2453.33 900.115L2560 884.697V651H2453.33C2346.67 651 2133.33 651 1920 651C1706.67 651 1493.33 651 1280 651C1066.67 651 853.333 651 640 651C426.667 651 213.333 651 106.667 651H0V837.633Z" fill="url(#paint3_linear)" fill-opacity="0.2"/>
<path id="fig2-wave4" class="fig2-wave4" fill-rule="evenodd" clip-rule="evenodd" d="M2560 726.807L2453.33 741.076C2346.67 755.345 2133.33 783.883 1920 826.69C1706.67 869.497 1493.33 926.573 1280 955.111C1066.67 983.649 853.333 983.649 640 940.842C426.667 898.035 213.333 812.421 106.667 769.614L-7.62939e-05 726.807V684H106.667C213.333 684 426.667 684 640 684C853.333 684 1066.67 684 1280 684C1493.33 684 1706.67 684 1920 684C2133.33 684 2346.67 684 2453.33 684H2560V726.807Z" fill="url(#paint4_linear)" fill-opacity="0.3"/>
<path id="fig2-wave3" class="fig2-wave3" d="M106.667 397.76L0 370V801H2560V536.56L2453.33 508.8C2346.67 481.04 2133.33 425.52 1920 460.22C1706.67 494.92 1493.33 619.84 1280 647.601C1066.67 675.361 853.333 605.96 640 543.5C426.667 481.04 213.333 425.52 106.667 397.76Z" fill="url(#paint5_linear)" fill-opacity="0.4"/>
<path id="fig2-wave2" class="fig2-wave2" fill-rule="evenodd" clip-rule="evenodd" d="M0 592.571L106.667 600.286C213.333 608 426.667 623.429 640 654.286C853.333 685.143 1066.67 731.429 1280 723.714C1493.33 716 1706.67 654.286 1920 608C2133.33 561.714 2346.67 530.857 2453.33 515.429L2560 500V824H2453.33C2346.67 824 2133.33 824 1920 824C1706.67 824 1493.33 824 1280 824C1066.67 824 853.333 824 640 824C426.667 824 213.333 824 106.667 824H0V592.571Z" fill="url(#paint6_linear)" fill-opacity="0.6"/>
<path id="fig2-wave1" class="fig2-wave1" fill-rule="evenodd" clip-rule="evenodd" d="M2560 570.333L2453.33 599.167C2346.67 628 2133.33 685.667 1920 656.833C1706.67 628 1493.33 512.667 1280 493.444C1066.67 474.222 853.333 551.111 640 560.722C426.667 570.333 213.333 512.667 106.667 483.833L-0.000133514 455V801H106.667C213.333 801 426.667 801 640 801C853.333 801 1066.67 801 1280 801C1493.33 801 1706.67 801 1920 801C2133.33 801 2346.67 801 2453.33 801H2560V570.333Z" fill="url(#paint7_linear)" fill-opacity="0.3"/>
</g>
</g>
<defs>
<filter id="filter0_f" x="-100" y="355" width="2760" height="815" filterUnits="userSpaceOnUse" color-interpolation-filters="sRGB">
<feFlood flood-opacity="0" result="BackgroundImageFix"/>
<feBlend mode="normal" in="SourceGraphic" in2="BackgroundImageFix" result="shape"/>
<feGaussianBlur stdDeviation="50" result="effect1_foregroundBlur"/>
</filter>
<filter id="filter1_f" x="-100" y="285" width="2760" height="815" filterUnits="userSpaceOnUse" color-interpolation-filters="sRGB">
<feFlood flood-opacity="0" result="BackgroundImageFix"/>
<feBlend mode="normal" in="SourceGraphic" in2="BackgroundImageFix" result="shape"/>
<feGaussianBlur stdDeviation="50" result="effect1_foregroundBlur"/>
</filter>
<filter id="filter2_f" x="-100" y="377" width="2760" height="698" filterUnits="userSpaceOnUse" color-interpolation-filters="sRGB">
<feFlood flood-opacity="0" result="BackgroundImageFix"/>
<feBlend mode="normal" in="SourceGraphic" in2="BackgroundImageFix" result="shape"/>
<feGaussianBlur stdDeviation="50" result="effect1_foregroundBlur"/>
</filter>
<linearGradient id="paint0_linear" x1="0" y1="1070" x2="279.365" y2="-92.8868" gradientUnits="userSpaceOnUse">
<stop stop-color="#2DC7ED"/>
<stop offset="1" stop-color="#538BF0" stop-opacity="0"/>
</linearGradient>
<linearGradient id="paint1_linear" x1="2560" y1="1000" x2="2280.63" y2="-162.887" gradientUnits="userSpaceOnUse">
<stop stop-color="#2DC7ED"/>
<stop offset="1" stop-color="#538BF0" stop-opacity="0"/>
</linearGradient>
<linearGradient id="paint2_linear" x1="2560" y1="477" x2="2373.31" y2="1436.68" gradientUnits="userSpaceOnUse">
<stop stop-color="#2DC7ED"/>
<stop offset="1" stop-color="#538BF0" stop-opacity="0"/>
</linearGradient>
<linearGradient id="paint3_linear" x1="1265.93" y1="1000" x2="1265.93" y2="651" gradientUnits="userSpaceOnUse">
<stop stop-color="#2DC7ED"/>
<stop offset="1" stop-color="#538BF0" stop-opacity="0"/>
</linearGradient>
<linearGradient id="paint4_linear" x1="1294.07" y1="975" x2="1294.07" y2="684" gradientUnits="userSpaceOnUse">
<stop stop-color="#2DC7ED"/>
<stop offset="1" stop-color="#538BF0" stop-opacity="0"/>
</linearGradient>
<linearGradient id="paint5_linear" x1="1208" y1="-83.2911" x2="1214.22" y2="748.48" gradientUnits="userSpaceOnUse">
<stop stop-color="#2DC7ED"/>
<stop offset="1" stop-color="#538BF0" stop-opacity="0"/>
</linearGradient>
<linearGradient id="paint6_linear" x1="1265.93" y1="500" x2="1265.93" y2="824" gradientUnits="userSpaceOnUse">
<stop stop-color="#2DC7ED"/>
<stop offset="1" stop-color="#538BF0" stop-opacity="0"/>
</linearGradient>
<linearGradient id="paint7_linear" x1="1294.07" y1="455" x2="1294.07" y2="801" gradientUnits="userSpaceOnUse">
<stop stop-color="#2DC7ED"/>
<stop offset="1" stop-color="#538BF0" stop-opacity="0"/>
</linearGradient>
<clipPath id="clip0">
<rect width="2560" height="1440" fill="white"/>
</clipPath>
</defs>
</svg>
