<svg width="72" height="72" viewBox="0 0 72 72" fill="none" xmlns="http://www.w3.org/2000/svg">
<path d="M56.2273 31.3636C56.2273 39.0819 51.2535 46.3135 46.1825 51.6662C43.6572 54.3318 41.1302 56.508 39.234 58.018C38.2863 58.7726 37.4971 59.3601 36.9459 59.7582C36.7035 59.9332 36.5072 60.0716 36.3636 60.1715C36.2201 60.0716 36.0238 59.9332 35.7814 59.7582C35.2301 59.3601 34.441 58.7726 33.4933 58.018C31.5971 56.508 29.0701 54.3318 26.5448 51.6662C21.4738 46.3135 16.5 39.0819 16.5 31.3636C16.5 26.0955 18.5928 21.0431 22.3179 17.3179C26.0431 13.5928 31.0955 11.5 36.3636 11.5C41.6318 11.5 46.6842 13.5928 50.4093 17.3179C54.1345 21.0431 56.2273 26.0955 56.2273 31.3636Z" fill="url(#paint0_linear)" stroke="url(#paint1_linear)" stroke-linecap="round" stroke-linejoin="round"/>
<path d="M42.6524 31.3636C42.6524 34.8363 39.8372 37.6514 36.3645 37.6514C32.8918 37.6514 30.0767 34.8363 30.0767 31.3636C30.0767 27.8909 32.8918 25.0757 36.3645 25.0757C39.8372 25.0757 42.6524 27.8909 42.6524 31.3636Z" fill="url(#paint2_linear)" stroke="url(#paint3_linear)" stroke-linecap="round" stroke-linejoin="round"/>
<defs>
<linearGradient id="paint0_linear" x1="56.7273" y1="11" x2="7.93519" y2="50.9208" gradientUnits="userSpaceOnUse">
<stop stop-color="#2DC7ED"/>
<stop offset="1" stop-color="#538BF0" stop-opacity="0"/>
</linearGradient>
<linearGradient id="paint1_linear" x1="49.3455" y1="17.8444" x2="17.8267" y2="48.2744" gradientUnits="userSpaceOnUse">
<stop stop-color="#FDFDFD"/>
<stop offset="1" stop-color="#FDFDFD" stop-opacity="0"/>
</linearGradient>
<linearGradient id="paint2_linear" x1="40.6918" y1="26.4424" x2="32.207" y2="36.4545" gradientUnits="userSpaceOnUse">
<stop stop-color="#FDFDFD"/>
<stop offset="1" stop-color="#FDFDFD" stop-opacity="0"/>
</linearGradient>
<linearGradient id="paint3_linear" x1="40.6918" y1="26.4424" x2="32.207" y2="36.4545" gradientUnits="userSpaceOnUse">
<stop stop-color="#FDFDFD"/>
<stop offset="1" stop-color="#FDFDFD" stop-opacity="0"/>
</linearGradient>
</defs>
</svg>
