<svg width="32" height="32" viewBox="0 0 32 32" fill="none" xmlns="http://www.w3.org/2000/svg">
<path d="M13.895 20.0158L14.7597 19.2576L13.6155 19.1423C11.1564 18.8946 9.56025 18.143 8.56815 17.0249C7.5744 15.9049 7.11592 14.3376 7.10215 12.3087C7.09551 11.3288 7.18243 10.661 7.39778 10.0885C7.61206 9.51882 7.96916 9.002 8.57308 8.34997L8.76554 8.14218L8.68627 7.87027C8.44734 7.05072 8.35765 6.46965 8.38168 5.93642C8.40177 5.49074 8.50241 5.05254 8.69524 4.50991C9.80126 4.57491 10.9083 4.96897 12.2869 5.97194L12.4908 6.1203L12.7313 6.04451C14.0804 5.61942 14.8609 5.48618 16.4598 5.55675L16.4598 5.5569L16.472 5.55714C18.1818 5.59075 18.9599 5.6985 20.1307 6.04686L20.3751 6.11958L20.5775 5.96447C21.3529 5.37013 21.9733 5.00964 22.5617 4.79422C23.0514 4.61496 23.5376 4.52937 24.0983 4.50647C24.322 5.06884 24.4408 5.51486 24.47 5.96295C24.5043 6.48889 24.4179 7.05856 24.1702 7.86312L24.0891 8.12685L24.2689 8.33611C24.8123 8.96831 25.158 9.45024 25.3751 10.0126C25.5917 10.5737 25.6955 11.2561 25.6793 12.3044C25.6492 14.2611 25.275 15.8012 24.3327 16.9263C23.3957 18.0452 21.8221 18.8413 19.1955 19.1431L18.2352 19.2534L18.8801 19.9734C19.2369 20.3718 19.4297 20.6793 19.5457 21.0016C19.6636 21.3288 19.7157 21.7072 19.7369 22.2739V26.9795C17.3603 27.4668 15.5929 27.5671 13.0446 27.101V23.7959V23.1345L12.4082 23.3148C11.878 23.4651 11.4728 23.4781 11.0142 23.4781C10.0184 23.4743 9.38722 23.3303 8.90882 23.0132C8.42873 22.695 8.02884 22.1537 7.60712 21.1894L7.60422 21.1828L7.60114 21.1762C7.14373 20.2076 6.53855 19.7323 6.08907 19.4308C6.59742 19.5783 6.92452 19.7333 7.1657 19.9155C7.45689 20.1354 7.66539 20.427 7.9022 20.9153L7.90558 20.9222L7.90917 20.9291C8.41648 21.8975 9.56173 22.4958 10.8852 22.5456L10.8852 22.5457L10.8954 22.5459C11.3261 22.5533 11.6547 22.5258 11.9562 22.4511C12.2572 22.3765 12.5055 22.2606 12.7691 22.1281L12.9798 22.0223L13.0321 21.7924C13.1513 21.2689 13.2529 20.9311 13.3798 20.6704C13.5 20.4234 13.6508 20.2299 13.895 20.0158Z" fill="url(#paint0_linear)" stroke="url(#paint1_linear)"/>
<defs>
<linearGradient id="paint0_linear" x1="26.181" y1="4" x2="2.45199" y2="25.0272" gradientUnits="userSpaceOnUse">
<stop stop-color="#2DC7ED"/>
<stop offset="1" stop-color="#538BF0" stop-opacity="0"/>
</linearGradient>
<linearGradient id="paint1_linear" x1="22.3419" y1="7.2866" x2="7.2128" y2="23.1063" gradientUnits="userSpaceOnUse">
<stop stop-color="#FDFDFD"/>
<stop offset="1" stop-color="#FDFDFD" stop-opacity="0"/>
</linearGradient>
</defs>
</svg>
