<svg width="72" height="72" viewBox="0 0 72 72" fill="none" xmlns="http://www.w3.org/2000/svg">
<mask id="path-1-inside-1" fill="white">
<path fill-rule="evenodd" clip-rule="evenodd" d="M35.8806 35.8401C35.8817 35.7865 35.8822 35.7327 35.8822 35.6788C35.8822 35.6249 35.8817 35.5711 35.8806 35.5175V27.7379H27.9956C27.9775 27.7377 27.9593 27.7377 27.9411 27.7377C23.5554 27.7377 20 31.293 20 35.6788C20 40.064 23.5545 43.619 27.9395 43.6199V43.6201H35.8806V35.8401Z"/>
</mask>
<path fill-rule="evenodd" clip-rule="evenodd" d="M35.8806 35.8401C35.8817 35.7865 35.8822 35.7327 35.8822 35.6788C35.8822 35.6249 35.8817 35.5711 35.8806 35.5175V27.7379H27.9956C27.9775 27.7377 27.9593 27.7377 27.9411 27.7377C23.5554 27.7377 20 31.293 20 35.6788C20 40.064 23.5545 43.619 27.9395 43.6199V43.6201H35.8806V35.8401Z" fill="url(#paint0_linear)"/>
<path d="M35.8806 35.8401L34.8808 35.8202L34.8806 35.8301V35.8401H35.8806ZM35.8806 35.5175H34.8806V35.5274L34.8808 35.5374L35.8806 35.5175ZM35.8806 27.7379H36.8806V26.7379H35.8806V27.7379ZM27.9956 27.7379L27.9889 28.7379H27.9956V27.7379ZM27.9395 43.6199H28.9395V42.6201L27.9397 42.6199L27.9395 43.6199ZM27.9395 43.6201H26.9395V44.6201H27.9395V43.6201ZM35.8806 43.6201V44.6201H36.8806V43.6201H35.8806ZM34.8822 35.6788C34.8822 35.726 34.8818 35.7732 34.8808 35.8202L36.8804 35.86C36.8816 35.7997 36.8822 35.7393 36.8822 35.6788H34.8822ZM34.8808 35.5374C34.8818 35.5844 34.8822 35.6315 34.8822 35.6788H36.8822C36.8822 35.6182 36.8816 35.5578 36.8804 35.4975L34.8808 35.5374ZM34.8806 27.7379V35.5175H36.8806V27.7379H34.8806ZM27.9956 28.7379H35.8806V26.7379H27.9956V28.7379ZM27.9411 28.7377C27.9571 28.7377 27.973 28.7377 27.9889 28.7378L28.0023 26.7379C27.9819 26.7377 27.9615 26.7377 27.9411 26.7377V28.7377ZM21 35.6788C21 31.8453 24.1076 28.7377 27.9411 28.7377V26.7377C23.0031 26.7377 19 30.7407 19 35.6788H21ZM27.9397 42.6199C24.1069 42.6191 21 39.5118 21 35.6788H19C19 40.6162 23.0021 44.6189 27.9393 44.6199L27.9397 42.6199ZM28.9395 43.6201V43.6199H26.9395V43.6201H28.9395ZM35.8806 42.6201H27.9395V44.6201H35.8806V42.6201ZM34.8806 35.8401V43.6201H36.8806V35.8401H34.8806Z" fill="url(#paint1_linear)" mask="url(#path-1-inside-1)"/>
<mask id="path-3-inside-2" fill="white">
<path fill-rule="evenodd" clip-rule="evenodd" d="M35.8806 12H27.9395V12.0009C27.916 12.0007 27.8925 12.0006 27.8689 12.0006C23.523 12.0006 20 15.5236 20 19.8695C20 24.2154 23.523 27.7384 27.8689 27.7384C27.9014 27.7384 27.9338 27.7382 27.9662 27.7378H35.8806V12Z"/>
</mask>
<path fill-rule="evenodd" clip-rule="evenodd" d="M35.8806 12H27.9395V12.0009C27.916 12.0007 27.8925 12.0006 27.8689 12.0006C23.523 12.0006 20 15.5236 20 19.8695C20 24.2154 23.523 27.7384 27.8689 27.7384C27.9014 27.7384 27.9338 27.7382 27.9662 27.7378H35.8806V12Z" fill="url(#paint2_linear)"/>
<path d="M27.9395 12V11H26.9395V12H27.9395ZM35.8806 12H36.8806V11H35.8806V12ZM27.9395 12.0009L27.9307 13.0009L28.9395 13.0097V12.0009H27.9395ZM27.9662 27.7378V26.7378L27.9541 26.7379L27.9662 27.7378ZM35.8806 27.7378V28.7378H36.8806V27.7378H35.8806ZM27.9395 13H35.8806V11H27.9395V13ZM28.9395 12.0009V12H26.9395V12.0009H28.9395ZM27.8689 13.0006C27.8895 13.0006 27.9101 13.0007 27.9307 13.0009L27.9483 11.0009C27.9219 11.0007 27.8954 11.0006 27.8689 11.0006V13.0006ZM21 19.8695C21 16.0759 24.0753 13.0006 27.8689 13.0006V11.0006C22.9708 11.0006 19 14.9713 19 19.8695H21ZM27.8689 26.7384C24.0753 26.7384 21 23.6631 21 19.8695H19C19 24.7677 22.9708 28.7384 27.8689 28.7384V26.7384ZM27.9541 26.7379C27.9258 26.7383 27.8974 26.7384 27.8689 26.7384V28.7384C27.9054 28.7384 27.9419 28.7382 27.9784 28.7378L27.9541 26.7379ZM35.8806 26.7378H27.9662V28.7378H35.8806V26.7378ZM34.8806 12V27.7378H36.8806V12H34.8806Z" fill="url(#paint3_linear)" mask="url(#path-3-inside-2)"/>
<circle cx="43.6809" cy="35.6789" r="7.44111" fill="url(#paint4_linear)" stroke="url(#paint5_linear)"/>
<mask id="path-6-inside-3" fill="white">
<path fill-rule="evenodd" clip-rule="evenodd" d="M28.0152 59.3577C32.361 59.3577 35.8841 55.8347 35.8841 51.4888C35.8841 51.4404 35.8836 51.3921 35.8828 51.3439V43.62H28.057C28.0431 43.6199 28.0291 43.6199 28.0152 43.6199C28.0012 43.6199 27.9873 43.6199 27.9733 43.62H27.9417V43.6202C23.6296 43.6597 20.1462 47.1674 20.1462 51.4888C20.1462 55.8347 23.6693 59.3577 28.0152 59.3577Z"/>
</mask>
<path fill-rule="evenodd" clip-rule="evenodd" d="M28.0152 59.3577C32.361 59.3577 35.8841 55.8347 35.8841 51.4888C35.8841 51.4404 35.8836 51.3921 35.8828 51.3439V43.62H28.057C28.0431 43.6199 28.0291 43.6199 28.0152 43.6199C28.0012 43.6199 27.9873 43.6199 27.9733 43.62H27.9417V43.6202C23.6296 43.6597 20.1462 47.1674 20.1462 51.4888C20.1462 55.8347 23.6693 59.3577 28.0152 59.3577Z" fill="url(#paint6_linear)"/>
<path d="M35.8828 51.3439H34.8828V51.353L34.8829 51.362L35.8828 51.3439ZM35.8828 43.62H36.8828V42.62H35.8828V43.62ZM28.057 43.62L28.0518 44.62H28.057V43.62ZM27.9733 43.62V44.62L27.9785 44.62L27.9733 43.62ZM27.9417 43.62V42.62H26.9417V43.62H27.9417ZM27.9417 43.6202L27.9508 44.6202L28.9417 44.6111V43.6202H27.9417ZM34.8841 51.4888C34.8841 55.2824 31.8088 58.3577 28.0152 58.3577V60.3577C32.9133 60.3577 36.8841 56.387 36.8841 51.4888H34.8841ZM34.8829 51.362C34.8837 51.4042 34.8841 51.4464 34.8841 51.4888H36.8841C36.8841 51.4344 36.8836 51.3801 36.8826 51.3259L34.8829 51.362ZM34.8828 43.62V51.3439H36.8828V43.62H34.8828ZM28.057 44.62H35.8828V42.62H28.057V44.62ZM28.0152 44.6199C28.0274 44.6199 28.0396 44.6199 28.0518 44.62L28.0622 42.62C28.0465 42.6199 28.0308 42.6199 28.0152 42.6199V44.6199ZM27.9785 44.62C27.9907 44.6199 28.0029 44.6199 28.0152 44.6199V42.6199C27.9995 42.6199 27.9838 42.6199 27.9681 42.62L27.9785 44.62ZM27.9417 44.62H27.9733V42.62H27.9417V44.62ZM28.9417 43.6202V43.62H26.9417V43.6202H28.9417ZM21.1462 51.4888C21.1462 47.7167 24.187 44.6546 27.9508 44.6202L27.9325 42.6203C23.0723 42.6647 19.1462 46.6182 19.1462 51.4888H21.1462ZM28.0152 58.3577C24.2216 58.3577 21.1462 55.2824 21.1462 51.4888H19.1462C19.1462 56.387 23.117 60.3577 28.0152 60.3577V58.3577Z" fill="url(#paint7_linear)" mask="url(#path-6-inside-3)"/>
<mask id="path-8-inside-4" fill="white">
<path fill-rule="evenodd" clip-rule="evenodd" d="M43.822 27.7375C48.1346 27.6988 51.6187 24.1907 51.6187 19.8689C51.6187 15.5471 48.1346 12.0391 43.822 12.0003V12H43.7498H35.8809V19.8689V27.7378H43.7498H43.822V27.7375Z"/>
</mask>
<path fill-rule="evenodd" clip-rule="evenodd" d="M43.822 27.7375C48.1346 27.6988 51.6187 24.1907 51.6187 19.8689C51.6187 15.5471 48.1346 12.0391 43.822 12.0003V12H43.7498H35.8809V19.8689V27.7378H43.7498H43.822V27.7375Z" fill="url(#paint8_linear)"/>
<path d="M43.822 27.7375L43.813 26.7376L42.822 26.7465V27.7375H43.822ZM43.822 12.0003H42.822V12.9914L43.813 13.0003L43.822 12.0003ZM43.822 12H44.822V11H43.822V12ZM35.8809 12V11H34.8809V12H35.8809ZM35.8809 27.7378H34.8809V28.7378H35.8809V27.7378ZM43.822 27.7378V28.7378H44.822V27.7378H43.822ZM50.6187 19.8689C50.6187 23.6414 47.5774 26.7037 43.813 26.7376L43.831 28.7375C48.6919 28.6938 52.6187 24.74 52.6187 19.8689H50.6187ZM43.813 13.0003C47.5774 13.0341 50.6187 16.0964 50.6187 19.8689H52.6187C52.6187 14.9979 48.6919 11.044 43.831 11.0004L43.813 13.0003ZM42.822 12V12.0003H44.822V12H42.822ZM43.7498 13H43.822V11H43.7498V13ZM35.8809 13H43.7498V11H35.8809V13ZM36.8809 19.8689V12H34.8809V19.8689H36.8809ZM36.8809 27.7378V19.8689H34.8809V27.7378H36.8809ZM43.7498 26.7378H35.8809V28.7378H43.7498V26.7378ZM43.822 26.7378H43.7498V28.7378H43.822V26.7378ZM42.822 27.7375V27.7378H44.822V27.7375H42.822Z" fill="url(#paint9_linear)" mask="url(#path-8-inside-4)"/>
<defs>
<linearGradient id="paint0_linear" x1="35.8822" y1="27.7377" x2="19.9998" y2="43.6199" gradientUnits="userSpaceOnUse">
<stop stop-color="#2DC7ED"/>
<stop offset="1" stop-color="#538BF0" stop-opacity="0"/>
</linearGradient>
<linearGradient id="paint1_linear" x1="33.0036" y1="29.9215" x2="23.0771" y2="41.6347" gradientUnits="userSpaceOnUse">
<stop stop-color="#FDFDFD"/>
<stop offset="1" stop-color="#FDFDFD" stop-opacity="0"/>
</linearGradient>
<linearGradient id="paint2_linear" x1="35.8806" y1="12" x2="20.1428" y2="27.88" gradientUnits="userSpaceOnUse">
<stop stop-color="#2DC7ED"/>
<stop offset="1" stop-color="#538BF0" stop-opacity="0"/>
</linearGradient>
<linearGradient id="paint3_linear" x1="27.9403" y1="12" x2="27.9403" y2="27.7384" gradientUnits="userSpaceOnUse">
<stop stop-color="#FDFDFD"/>
<stop offset="1" stop-color="#FDFDFD" stop-opacity="0"/>
</linearGradient>
<linearGradient id="paint4_linear" x1="51.622" y1="27.7378" x2="35.7397" y2="43.62" gradientUnits="userSpaceOnUse">
<stop stop-color="#2DC7ED"/>
<stop offset="1" stop-color="#538BF0" stop-opacity="0"/>
</linearGradient>
<linearGradient id="paint5_linear" x1="43.6809" y1="27.7378" x2="43.6809" y2="43.62" gradientUnits="userSpaceOnUse">
<stop stop-color="#FDFDFD" stop-opacity="0"/>
<stop offset="1" stop-color="#FDFDFD"/>
</linearGradient>
<linearGradient id="paint6_linear" x1="35.8841" y1="43.6199" x2="20.1462" y2="59.3577" gradientUnits="userSpaceOnUse">
<stop stop-color="#2DC7ED"/>
<stop offset="1" stop-color="#538BF0" stop-opacity="0"/>
</linearGradient>
<linearGradient id="paint7_linear" x1="35.4234" y1="47.48" x2="22.6128" y2="54.8086" gradientUnits="userSpaceOnUse">
<stop stop-color="#FDFDFD"/>
<stop offset="1" stop-color="#FDFDFD" stop-opacity="0"/>
</linearGradient>
<linearGradient id="paint8_linear" x1="51.6187" y1="12" x2="35.8809" y2="27.7378" gradientUnits="userSpaceOnUse">
<stop stop-color="#2DC7ED"/>
<stop offset="1" stop-color="#538BF0" stop-opacity="0"/>
</linearGradient>
<linearGradient id="paint9_linear" x1="43.7498" y1="12" x2="43.7498" y2="27.7378" gradientUnits="userSpaceOnUse">
<stop stop-color="#FDFDFD"/>
<stop offset="1" stop-color="#FDFDFD" stop-opacity="0"/>
</linearGradient>
</defs>
</svg>
