<svg width="72" height="72" viewBox="0 0 72 72" fill="none" xmlns="http://www.w3.org/2000/svg">
<rect width="22.0978" height="22.0978" transform="matrix(0.866025 -0.5 2.20305e-08 1 35.8645 37.2498)" fill="url(#paint0_linear)"/>
<rect width="22.0978" height="22.0978" transform="matrix(0.866025 -0.5 2.20305e-08 1 42.6079 42.0254)" fill="url(#paint1_linear)" fill-opacity="0.3"/>
<rect width="22.0978" height="22.0978" transform="matrix(0.866025 0.5 -0.866025 0.5 35.8506 15.152)" fill="url(#paint2_linear)"/>
<rect width="22.0978" height="22.0978" transform="matrix(0.866025 0.5 -0.866025 0.5 35.8506 7)" fill="url(#paint3_linear)" fill-opacity="0.3"/>
<rect width="22.0978" height="22.0978" transform="matrix(0.866025 0.5 -2.20305e-08 1 16.7134 26.2009)" fill="url(#paint4_linear)"/>
<rect width="22.0978" height="22.0978" transform="matrix(0.866025 0.5 -2.20305e-08 1 10 30.9766)" fill="url(#paint5_linear)" fill-opacity="0.3"/>
<defs>
<linearGradient id="paint0_linear" x1="10.9275" y1="22.0978" x2="10.9275" y2="1.15542e-07" gradientUnits="userSpaceOnUse">
<stop stop-color="#2DC7ED"/>
<stop offset="1" stop-color="#538BF0" stop-opacity="0"/>
</linearGradient>
<linearGradient id="paint1_linear" x1="11.0489" y1="0" x2="11.0489" y2="22.0978" gradientUnits="userSpaceOnUse">
<stop stop-color="#FDFDFD"/>
<stop offset="1" stop-color="#FDFDFD" stop-opacity="0"/>
</linearGradient>
<linearGradient id="paint2_linear" x1="10.9275" y1="22.0978" x2="10.9275" y2="1.15542e-07" gradientUnits="userSpaceOnUse">
<stop stop-color="#2DC7ED"/>
<stop offset="1" stop-color="#538BF0" stop-opacity="0"/>
</linearGradient>
<linearGradient id="paint3_linear" x1="11.0489" y1="0" x2="11.0489" y2="22.0978" gradientUnits="userSpaceOnUse">
<stop stop-color="#FDFDFD" stop-opacity="0"/>
<stop offset="1" stop-color="#FDFDFD"/>
</linearGradient>
<linearGradient id="paint4_linear" x1="0" y1="11.1703" x2="22.0978" y2="11.1703" gradientUnits="userSpaceOnUse">
<stop stop-color="#2DC7ED"/>
<stop offset="1" stop-color="#538BF0" stop-opacity="0"/>
</linearGradient>
<linearGradient id="paint5_linear" x1="18.0925" y1="3.03844" x2="4.28144" y2="19.3355" gradientUnits="userSpaceOnUse">
<stop stop-color="#FDFDFD"/>
<stop offset="1" stop-color="#FDFDFD" stop-opacity="0"/>
</linearGradient>
</defs>
</svg>
