<svg width="32" height="32" viewBox="0 0 32 32" fill="none" xmlns="http://www.w3.org/2000/svg">
<path fill-rule="evenodd" clip-rule="evenodd" d="M11.7049 7.11108H2.6665V24.8383H11.3821C15.0944 24.8383 17.2195 22.4173 17.2195 19.5389C17.0312 17.1717 16.4829 16.2299 14.5026 15.3694C15.9562 14.4111 16.6008 13.7554 16.6008 11.4689C16.6008 8.50989 13.9377 7.11108 11.7049 7.11108ZM20.9855 18.8933H30.1584V17.6828C30.266 13.325 27.1456 11.2268 23.9714 11.2268C20.1516 11.2268 17.5961 13.7285 17.5961 18.0594C17.5961 23.1167 21.1738 24.7307 23.8638 24.7307C27.845 24.7307 29.8087 22.2828 30.0508 20.6149H26.5807C26.0158 21.7986 25.0893 22.0138 24.0521 22.0138C22.1422 22.0138 21.1301 20.9156 20.9855 18.8933ZM20.313 7.83739V9.6128H27.4415V7.83739H20.313ZM10.7369 10.1777H6.70186V14.1051H10.7369C12.1895 14.1051 13.1041 13.4864 13.1041 12.0876C13.1041 10.7426 12.0819 10.1777 10.7369 10.1777ZM10.7369 17.0641H6.70186V21.7716H10.7369C12.4854 21.7716 13.4538 20.8301 13.4538 19.4044C13.4538 17.8442 12.4585 17.0641 10.7369 17.0641ZM21.0665 16.7144C21.1741 15.2349 22.1156 13.9975 23.8641 13.9975C25.4512 13.9975 26.7155 15.1004 26.7155 16.7144H21.0665Z" fill="url(#paint0_linear)"/>
<path d="M2.6665 7.11108V6.61108H2.1665V7.11108H2.6665ZM2.6665 24.8383H2.1665V25.3383H2.6665V24.8383ZM17.2195 19.5389H17.7195V19.5191L17.7179 19.4993L17.2195 19.5389ZM14.5026 15.3694L14.2273 14.952L13.4566 15.4601L14.3033 15.828L14.5026 15.3694ZM30.1584 18.8933V19.3933H30.6584V18.8933H30.1584ZM20.9855 18.8933V18.3933H20.4485L20.4868 18.929L20.9855 18.8933ZM30.1584 17.6828L29.6584 17.6705V17.6828H30.1584ZM30.0508 20.6149L30.5456 20.6868L30.6286 20.1149H30.0508V20.6149ZM26.5807 20.6149V20.1149H26.2653L26.1295 20.3996L26.5807 20.6149ZM20.313 9.6128H19.813V10.1128H20.313V9.6128ZM20.313 7.83739V7.33739H19.813V7.83739H20.313ZM27.4415 9.6128V10.1128H27.9415V9.6128H27.4415ZM27.4415 7.83739H27.9415V7.33739H27.4415V7.83739ZM6.70186 10.1777V9.67766H6.20186V10.1777H6.70186ZM6.70186 14.1051H6.20186V14.6051H6.70186V14.1051ZM6.70186 17.0641V16.5641H6.20186V17.0641H6.70186ZM6.70186 21.7716H6.20186V22.2716H6.70186V21.7716ZM21.0665 16.7144L20.5678 16.6781L20.5288 17.2144H21.0665V16.7144ZM26.7155 16.7144V17.2144H27.2155V16.7144H26.7155ZM2.6665 7.61108H11.7049V6.61108H2.6665V7.61108ZM3.1665 24.8383V7.11108H2.1665V24.8383H3.1665ZM11.3821 24.3383H2.6665V25.3383H11.3821V24.3383ZM16.7195 19.5389C16.7195 20.8529 16.236 22.0449 15.3448 22.909C14.455 23.7717 13.1264 24.3383 11.3821 24.3383V25.3383C13.3501 25.3383 14.9401 24.6943 16.0409 23.6269C17.1404 22.5609 17.7195 21.1033 17.7195 19.5389H16.7195ZM14.3033 15.828C15.2513 16.2399 15.78 16.6392 16.1117 17.1583C16.4512 17.6899 16.6284 18.4144 16.721 19.5786L17.7179 19.4993C17.6222 18.2963 17.4311 17.3662 16.9544 16.62C16.4697 15.8613 15.7341 15.3594 14.7018 14.9108L14.3033 15.828ZM16.1008 11.4689C16.1008 12.5715 15.9439 13.2017 15.6684 13.6594C15.3887 14.124 14.9506 14.4752 14.2273 14.952L14.7778 15.7869C15.5081 15.3054 16.1191 14.8496 16.5251 14.1751C16.9353 13.4937 17.1008 12.6528 17.1008 11.4689H16.1008ZM11.7049 7.61108C12.7268 7.61108 13.8405 7.93337 14.6872 8.57814C15.5197 9.21213 16.1008 10.1597 16.1008 11.4689H17.1008C17.1008 9.81907 16.3503 8.58775 15.2931 7.78258C14.25 6.9882 12.9158 6.61108 11.7049 6.61108V7.61108ZM30.1584 18.3933H20.9855V19.3933H30.1584V18.3933ZM29.6584 17.6828V18.8933H30.6584V17.6828H29.6584ZM23.9714 11.7268C25.453 11.7268 26.8997 12.2168 27.9572 13.1888C29.0052 14.1519 29.7091 15.6227 29.6586 17.6705L30.6583 17.6952C30.7153 15.3852 29.9128 13.6279 28.6339 12.4525C27.3646 11.2859 25.664 10.7268 23.9714 10.7268V11.7268ZM18.0961 18.0594C18.0961 15.992 18.7045 14.4184 19.7126 13.3647C20.7189 12.3129 22.1733 11.7268 23.9714 11.7268V10.7268C21.9497 10.7268 20.2165 11.3915 18.99 12.6734C17.7654 13.9533 17.0961 15.7959 17.0961 18.0594H18.0961ZM23.8638 24.2307C22.6085 24.2307 21.1643 23.8525 20.0431 22.9089C18.938 21.979 18.0961 20.4579 18.0961 18.0594H17.0961C17.0961 20.7182 18.043 22.5327 19.3992 23.6741C20.7394 24.8019 22.429 25.2307 23.8638 25.2307V24.2307ZM29.556 20.5431C29.354 21.9349 27.6284 24.2307 23.8638 24.2307V25.2307C28.0616 25.2307 30.2635 22.6306 30.5456 20.6868L29.556 20.5431ZM26.5807 21.1149H30.0508V20.1149H26.5807V21.1149ZM24.0521 22.5138C24.5976 22.5138 25.175 22.4589 25.7051 22.2112C26.2516 21.9559 26.7043 21.5167 27.032 20.8303L26.1295 20.3996C25.8922 20.8968 25.5992 21.157 25.2819 21.3052C24.9483 21.4611 24.5439 21.5138 24.0521 21.5138V22.5138ZM20.4868 18.929C20.5641 20.0099 20.8781 20.919 21.4973 21.5594C22.1244 22.208 22.9988 22.5138 24.0521 22.5138V21.5138C23.1955 21.5138 22.6089 21.2704 22.2163 20.8643C21.8158 20.4502 21.5515 19.799 21.4842 18.8577L20.4868 18.929ZM20.813 9.6128V7.83739H19.813V9.6128H20.813ZM27.4415 9.1128H20.313V10.1128H27.4415V9.1128ZM26.9415 7.83739V9.6128H27.9415V7.83739H26.9415ZM20.313 8.33739H27.4415V7.33739H20.313V8.33739ZM6.70186 10.6777H10.7369V9.67766H6.70186V10.6777ZM7.20186 14.1051V10.1777H6.20186V14.1051H7.20186ZM10.7369 13.6051H6.70186V14.6051H10.7369V13.6051ZM12.6041 12.0876C12.6041 12.6699 12.4197 13.0161 12.1521 13.2311C11.8652 13.4615 11.4034 13.6051 10.7369 13.6051V14.6051C11.523 14.6051 12.2448 14.4393 12.7783 14.0107C13.3312 13.5666 13.6041 12.9041 13.6041 12.0876H12.6041ZM10.7369 10.6777C11.3504 10.6777 11.8234 10.8082 12.13 11.0321C12.4127 11.2385 12.6041 11.5591 12.6041 12.0876H13.6041C13.6041 11.271 13.2844 10.6367 12.7197 10.2244C12.179 9.8296 11.4683 9.67766 10.7369 9.67766V10.6777ZM6.70186 17.5641H10.7369V16.5641H6.70186V17.5641ZM7.20186 21.7716V17.0641H6.20186V21.7716H7.20186ZM10.7369 21.2716H6.70186V22.2716H10.7369V21.2716ZM12.9538 19.4044C12.9538 19.999 12.7556 20.4466 12.417 20.7506C12.0722 21.0601 11.5247 21.2716 10.7369 21.2716V22.2716C11.6976 22.2716 12.5085 22.0124 13.0851 21.4947C13.6678 20.9715 13.9538 20.2355 13.9538 19.4044H12.9538ZM10.7369 17.5641C11.5315 17.5641 12.0781 17.7452 12.4192 18.0319C12.7456 18.3063 12.9538 18.7364 12.9538 19.4044H13.9538C13.9538 18.5122 13.6643 17.7722 13.0627 17.2664C12.4757 16.773 11.6639 16.5641 10.7369 16.5641V17.5641ZM23.8641 13.4975C22.8627 13.4975 22.0554 13.8562 21.4867 14.4576C20.9254 15.0512 20.6283 15.8467 20.5678 16.6781L21.5652 16.7507C21.6123 16.1026 21.8398 15.5397 22.2133 15.1447C22.5794 14.7575 23.1171 14.4975 23.8641 14.4975V13.4975ZM27.2155 16.7144C27.2155 14.7898 25.6916 13.4975 23.8641 13.4975V14.4975C25.2109 14.4975 26.2155 15.411 26.2155 16.7144H27.2155ZM21.0665 17.2144H26.7155V16.2144H21.0665V17.2144Z" fill="url(#paint1_linear)"/>
<defs>
<linearGradient id="paint0_linear" x1="30.1611" y1="7.11108" x2="14.0142" y2="32.1547" gradientUnits="userSpaceOnUse">
<stop stop-color="#2DC7ED"/>
<stop offset="1" stop-color="#538BF0" stop-opacity="0"/>
</linearGradient>
<linearGradient id="paint1_linear" x1="25.1777" y1="9.54857" x2="15.7258" y2="26.8472" gradientUnits="userSpaceOnUse">
<stop stop-color="#FDFDFD"/>
<stop offset="1" stop-color="#FDFDFD" stop-opacity="0"/>
</linearGradient>
</defs>
</svg>
