<svg width="72" height="72" viewBox="0 0 72 72" fill="none" xmlns="http://www.w3.org/2000/svg">
<path d="M25.6688 58.6581L25.6688 58.6581L25.6605 58.6587C24.3569 58.7571 23.4854 58.722 22.79 58.4939C22.1172 58.2732 21.5595 57.8543 20.9265 57.0712L14.9327 49.3587C14.4528 48.6502 14.1651 48.1318 13.9621 47.6456C13.7636 47.1701 13.6389 46.7085 13.5 46.0979V16.7962C13.6274 16.0814 13.791 15.6602 14.0701 15.3522C14.3524 15.0406 14.8104 14.7818 15.6698 14.532L42.542 12.6035L42.542 12.6037L42.5558 12.6023C43.6957 12.4887 44.5298 12.4534 45.3244 12.581C46.1054 12.7063 46.8785 12.9945 47.8756 13.5716L56.8162 19.7745L56.8205 19.7775C57.5309 20.2593 57.9366 20.6317 58.1757 21.0444C58.4087 21.4466 58.5157 21.945 58.4981 22.7472L58.498 22.7472V22.7582V53.514C58.4807 54.8383 58.2969 55.5662 57.9319 56.0135C57.5786 56.4465 56.9674 56.7206 55.7878 56.8837L25.6688 58.6581Z" fill="url(#paint0_linear)" stroke="url(#paint1_linear)"/>
<path d="M42.9131 15.0253L42.921 15.0247L42.9289 15.0238C44.1501 14.8905 44.983 14.8824 45.6695 15.0257C46.3393 15.1655 46.9044 15.4571 47.5723 15.9897L47.5722 15.9898L47.5816 15.9969L51.9693 19.3306L51.9648 19.3307L51.9545 19.3314L24.6691 21.1368L24.6691 21.1368L24.6639 21.1372C23.8943 21.1961 23.3739 21.2078 22.942 21.1246C22.5345 21.0461 22.1849 20.8783 21.7804 20.5258C21.7802 20.5256 21.78 20.5255 21.7798 20.5253L18.3702 17.536L18.3634 17.53L18.3563 17.5242C18.111 17.3245 17.9449 17.1708 17.8411 17.0542C17.8475 17.0522 17.8542 17.0502 17.861 17.0483C18.0684 16.988 18.3835 16.9349 18.8326 16.8866L42.9131 15.0253ZM17.7281 16.8994C17.7284 16.8995 17.7298 16.9024 17.7315 16.9077C17.7286 16.902 17.7278 16.8993 17.7281 16.8994Z" fill="url(#paint2_linear)" stroke="url(#paint3_linear)"/>
<path d="M30.3881 31.523V31.0774L29.9453 31.0263L28.0528 30.8082C28.0512 30.4405 28.1076 30.2328 28.1967 30.0918C28.3068 29.9176 28.5276 29.75 29.0607 29.5649L35.5871 29.1607L44.6812 43.4699L45.6032 44.9206V43.2017V30.4032V29.9774L45.1829 29.9096L43.2971 29.6052C43.3176 29.3432 43.3714 29.2005 43.4505 29.1013C43.5652 28.9574 43.8218 28.7961 44.5015 28.66L50.0186 28.2686C50.0509 28.6736 49.9768 28.8318 49.8907 28.9148C49.8229 28.9801 49.6905 29.0583 49.4203 29.1173C49.1507 29.1762 48.7836 29.2076 48.2878 29.2099L47.7902 29.2123V29.7099V50.1179C47.315 50.3973 46.9246 50.5879 46.5138 50.7236C46.0433 50.879 45.5231 50.9698 44.7906 51.0199C44.2587 50.9894 43.8107 50.7652 43.293 50.211C42.7463 49.6259 42.1621 48.7159 41.3702 47.3738L41.3703 47.3737L41.3663 47.3672L33.8101 34.9953L32.8834 33.478V35.2559V49.0677V49.4371L33.2365 49.5456L35.5317 50.2511C35.4347 50.4691 35.3175 50.5961 35.1766 50.6875C34.9228 50.852 34.5111 50.9563 33.7559 51.0222L28.0324 51.4148C28.0405 51.3558 28.056 51.3156 28.0734 51.284C28.1248 51.1909 28.255 51.0596 28.6412 50.8638L30.0462 50.3952L30.3881 50.2812V49.9209V31.523Z" fill="url(#paint4_linear)" stroke="url(#paint5_linear)"/>
<defs>
<linearGradient id="paint0_linear" x1="59" y1="12" x2="11.8054" y2="57.9845" gradientUnits="userSpaceOnUse">
<stop stop-color="#2DC7ED"/>
<stop offset="1" stop-color="#538BF0" stop-opacity="0"/>
</linearGradient>
<linearGradient id="paint1_linear" x1="50.6625" y1="18.4914" x2="21.0397" y2="52.5501" gradientUnits="userSpaceOnUse">
<stop stop-color="#FDFDFD"/>
<stop offset="1" stop-color="#FDFDFD" stop-opacity="0"/>
</linearGradient>
<linearGradient id="paint2_linear" x1="46.4751" y1="15.4197" x2="44.9345" y2="24.3578" gradientUnits="userSpaceOnUse">
<stop stop-color="#FDFDFD"/>
<stop offset="1" stop-color="#FDFDFD" stop-opacity="0"/>
</linearGradient>
<linearGradient id="paint3_linear" x1="46.4751" y1="15.4197" x2="44.9345" y2="24.3578" gradientUnits="userSpaceOnUse">
<stop stop-color="#FDFDFD"/>
<stop offset="1" stop-color="#FDFDFD" stop-opacity="0"/>
</linearGradient>
<linearGradient id="paint4_linear" x1="39.0264" y1="27.7368" x2="39.0264" y2="51.9473" gradientUnits="userSpaceOnUse">
<stop stop-color="#FDFDFD"/>
<stop offset="1" stop-color="#FDFDFD" stop-opacity="0"/>
</linearGradient>
<linearGradient id="paint5_linear" x1="39.0264" y1="27.7368" x2="39.0264" y2="51.9473" gradientUnits="userSpaceOnUse">
<stop stop-color="#FDFDFD"/>
<stop offset="1" stop-color="#FDFDFD" stop-opacity="0"/>
</linearGradient>
</defs>
</svg>
