<svg width="72" height="72" viewBox="0 0 72 72" fill="none" xmlns="http://www.w3.org/2000/svg">
<path d="M55.9032 21.5082L55.8512 21.4142L55.7652 21.3499C52.4345 18.8595 49.182 17.6471 46.7582 17.0574C45.5463 16.7626 44.5407 16.6232 43.8346 16.5577C43.4814 16.5249 43.203 16.5105 43.0107 16.5043C42.9146 16.5013 42.84 16.5003 42.7884 16.5C42.7626 16.4999 42.7426 16.5 42.7284 16.5002L42.7117 16.5004L42.7067 16.5004L42.7051 16.5005L42.7044 16.5005C42.7042 16.5005 42.704 16.5005 42.7149 17.0004L42.704 16.5005L42.4842 16.5053L42.3391 16.6706L41.7038 17.3944L41.1929 17.9765L41.9338 18.2024C44.145 18.8767 46.0108 19.6368 47.5445 20.3752C39.2513 17.5869 30.3555 17.7911 22.4192 20.4832C24.1323 19.6451 26.2779 18.7723 28.8772 18.0237L29.6146 17.8113L29.1225 17.2226L28.6687 16.6797L28.5231 16.5055L28.296 16.5005L28.2851 17.0004C28.296 16.5005 28.2958 16.5005 28.2955 16.5005L28.2949 16.5005L28.2933 16.5004L28.2883 16.5004L28.2716 16.5002C28.2574 16.5 28.2374 16.4999 28.2116 16.5C28.16 16.5003 28.0854 16.5013 27.9893 16.5043C27.797 16.5105 27.5186 16.5249 27.1654 16.5577C26.4593 16.6232 25.4537 16.7626 24.2418 17.0574C21.818 17.6471 18.5655 18.8595 15.2348 21.3499L15.1488 21.4142L15.0968 21.5082L15.5342 21.7503C15.0968 21.5082 15.0967 21.5084 15.0966 21.5086L15.0962 21.5092L15.0951 21.5113L15.091 21.5186L15.076 21.5462C15.063 21.5702 15.044 21.6055 15.0194 21.6518C14.9701 21.7444 14.8986 21.881 14.8078 22.0594C14.6263 22.4163 14.3681 22.9404 14.0589 23.6142C13.4404 24.9615 12.6171 26.9083 11.7941 29.3127C10.149 34.1189 8.5 40.7688 8.5 48.1239V48.2586L8.56769 48.3751L9 48.1239C8.56769 48.3751 8.56784 48.3754 8.56801 48.3756L8.56842 48.3763L8.5695 48.3782L8.57273 48.3837L8.58349 48.4016C8.59259 48.4166 8.60553 48.4377 8.62241 48.4645C8.65615 48.5179 8.70563 48.5941 8.77143 48.6897C8.90301 48.881 9.10004 49.1505 9.36737 49.4729C9.90187 50.1175 10.7186 50.975 11.8565 51.8411C14.1366 53.5765 17.6951 55.3378 22.8241 55.4998L23.0695 55.5075L23.2256 55.3181L22.8399 55L23.2257 55.3181L23.2257 55.318L23.226 55.3177L23.2269 55.3166L23.2306 55.3121L23.245 55.2946L23.3008 55.2269L23.51 54.9723C23.689 54.7542 23.9417 54.4456 24.2371 54.0832C24.8276 53.3586 25.5894 52.4179 26.2721 51.5557L26.7303 50.9771L26.0231 50.7661C23.6723 50.0649 21.9412 49.0411 20.7257 48.0935C28.4157 51.9434 38.8572 53.0361 48.2982 49.0867C49.01 48.8228 49.7564 48.5059 50.5296 48.1285C49.2675 49.1035 47.4558 50.1586 44.9843 50.8545L44.262 51.0579L44.7279 51.6462C45.4115 52.5094 46.1626 53.4284 46.7421 54.1307C47.032 54.4821 47.2793 54.7796 47.4542 54.9894C47.5416 55.0942 47.6109 55.1772 47.6584 55.234L47.7129 55.299L47.727 55.3158L47.7306 55.3201L47.7315 55.3212L47.7317 55.3214L47.7318 55.3215L48.1147 55L47.7318 55.3215L47.8879 55.5074L48.1305 55.4998C53.2594 55.3378 56.8289 53.5766 59.1198 51.8418C60.2632 50.976 61.0855 50.1188 61.6242 49.4745C61.8937 49.1522 62.0925 48.8828 62.2253 48.6917C62.2917 48.5961 62.3417 48.52 62.3758 48.4665C62.3928 48.4398 62.4059 48.4188 62.4151 48.4038L62.4259 48.3859L62.4292 48.3804L62.4303 48.3786L62.4307 48.3779C62.4309 48.3776 62.431 48.3773 62 48.1239L62.431 48.3773L62.5 48.26V48.1239C62.5 40.7688 60.851 34.1189 59.2059 29.3127C58.3829 26.9083 57.5596 24.9615 56.9411 23.6142C56.6319 22.9404 56.3737 22.4163 56.1922 22.0594C56.1014 21.881 56.0299 21.7444 55.9806 21.6518C55.956 21.6055 55.937 21.5702 55.924 21.5462L55.909 21.5186L55.9049 21.5113L55.9038 21.5092L55.9034 21.5086C55.9033 21.5084 55.9032 21.5082 55.4658 21.7503L55.9032 21.5082ZM31.143 38.8872L31.143 38.8872V38.8954C31.143 41.421 29.2844 43.4168 27.0146 43.4168C24.787 43.4168 22.8861 41.4177 22.8861 38.8954C22.8861 36.3698 24.7447 34.374 27.0146 34.374C29.2915 34.374 31.1843 36.3758 31.143 38.8872ZM47.7055 38.8954C47.7055 41.421 45.8469 43.4168 43.5771 43.4168C41.3495 43.4168 39.4486 41.4177 39.4486 38.8954C39.4486 36.3698 41.3072 34.374 43.5771 34.374C45.8469 34.374 47.7055 36.3698 47.7055 38.8954Z" fill="url(#paint0_linear)" stroke="url(#paint1_linear)"/>
<defs>
<linearGradient id="paint0_linear" x1="62" y1="17" x2="26.0103" y2="67.1961" gradientUnits="userSpaceOnUse">
<stop stop-color="#2DC7ED"/>
<stop offset="1" stop-color="#538BF0" stop-opacity="0"/>
</linearGradient>
<linearGradient id="paint1_linear" x1="52.3938" y1="22.225" x2="31.0251" y2="57.3933" gradientUnits="userSpaceOnUse">
<stop stop-color="#FDFDFD"/>
<stop offset="1" stop-color="#FDFDFD" stop-opacity="0.3"/>
</linearGradient>
</defs>
</svg>
