<svg width="72" height="72" viewBox="0 0 72 72" fill="none" xmlns="http://www.w3.org/2000/svg">
<path d="M21.128 52.384C17.064 52.384 14.184 51.968 12.488 51.136C10.824 50.272 9.768 48.768 9.32 46.624C8.904 44.48 8.696 40.768 8.696 35.488C8.696 30.208 8.904 26.496 9.32 24.352C9.768 22.208 10.824 20.72 12.488 19.888C14.184 19.024 17.064 18.592 21.128 18.592C25.192 18.592 28.056 19.024 29.72 19.888C31.416 20.72 32.472 22.224 32.888 24.4C33.336 26.544 33.56 30.24 33.56 35.488C33.56 40.768 33.336 44.48 32.888 46.624C32.472 48.768 31.416 50.272 29.72 51.136C28.056 51.968 25.192 52.384 21.128 52.384ZM21.128 48.544C24.072 48.544 26.04 48.336 27.032 47.92C28.056 47.472 28.712 46.448 29 44.848C29.288 43.248 29.432 40.128 29.432 35.488C29.432 30.848 29.288 27.728 29 26.128C28.712 24.528 28.056 23.52 27.032 23.104C26.04 22.656 24.072 22.432 21.128 22.432C18.184 22.432 16.2 22.656 15.176 23.104C14.152 23.52 13.496 24.528 13.208 26.128C12.92 27.728 12.776 30.848 12.776 35.488C12.776 40.128 12.92 43.248 13.208 44.848C13.496 46.448 14.152 47.472 15.176 47.92C16.2 48.336 18.184 48.544 21.128 48.544ZM49.922 52.384C48.45 52.384 46.786 52.304 44.93 52.144C43.074 51.984 41.474 51.776 40.13 51.52V47.968C43.906 48.352 47.074 48.544 49.634 48.544C51.81 48.544 53.49 48.432 54.674 48.208C55.858 47.952 56.77 47.424 57.41 46.624C58.05 45.824 58.37 44.608 58.37 42.976C58.37 40.832 57.89 39.344 56.93 38.512C56.002 37.648 54.37 37.216 52.034 37.216H45.842V33.376H52.034C53.922 33.376 55.394 32.992 56.45 32.224C57.506 31.456 58.034 30.032 58.034 27.952C58.034 26.288 57.746 25.072 57.17 24.304C56.594 23.536 55.698 23.04 54.482 22.816C53.298 22.56 51.522 22.432 49.154 22.432C47.874 22.432 46.402 22.496 44.738 22.624C43.106 22.752 41.634 22.896 40.322 23.056V19.456C41.602 19.2 43.154 18.992 44.978 18.832C46.802 18.672 48.466 18.592 49.97 18.592C53.074 18.592 55.506 18.912 57.266 19.552C59.058 20.16 60.322 21.104 61.058 22.384C61.826 23.632 62.21 25.264 62.21 27.28C62.21 29.584 61.73 31.36 60.77 32.608C59.842 33.824 58.434 34.64 56.546 35.056V35.248C58.53 35.6 60.018 36.368 61.01 37.552C62.034 38.736 62.546 40.608 62.546 43.168C62.546 45.216 62.21 46.896 61.538 48.208C60.866 49.52 59.602 50.544 57.746 51.28C55.922 52.016 53.314 52.384 49.922 52.384Z" fill="url(#paint0_linear)"/>
<path d="M12.488 51.136L12.1654 51.7572C12.1702 51.7597 12.1749 51.7621 12.1797 51.7645L12.488 51.136ZM9.32 46.624L8.63275 46.7573L8.6348 46.7672L9.32 46.624ZM9.32 24.352L8.63473 24.2088L8.63282 24.2187L9.32 24.352ZM12.488 19.888L12.8011 20.5141L12.8057 20.5117L12.488 19.888ZM29.72 19.888L29.3974 20.5092C29.4022 20.5117 29.4069 20.5141 29.4117 20.5165L29.72 19.888ZM32.888 24.4L32.2004 24.5315L32.2028 24.5432L32.888 24.4ZM32.888 46.624L32.2027 46.4808L32.2008 46.4907L32.888 46.624ZM29.72 51.136L30.0331 51.7621L30.0378 51.7597L29.72 51.136ZM27.032 47.92L27.3027 48.5656L27.3126 48.5613L27.032 47.92ZM29 44.848L28.3111 44.724L28.3111 44.724L29 44.848ZM29 26.128L28.3111 26.252L28.3111 26.252L29 26.128ZM27.032 23.104L26.7439 23.742C26.752 23.7456 26.7603 23.7492 26.7685 23.7525L27.032 23.104ZM15.176 23.104L15.4395 23.7525C15.4452 23.7502 15.4509 23.7478 15.4566 23.7453L15.176 23.104ZM13.208 44.848L12.5191 44.972L12.5191 44.972L13.208 44.848ZM15.176 47.92L14.8954 48.5613C14.9011 48.5638 14.9068 48.5662 14.9125 48.5685L15.176 47.92ZM21.128 51.684C17.0752 51.684 14.3369 51.2633 12.7963 50.5075L12.1797 51.7645C14.0311 52.6727 17.0528 53.084 21.128 53.084V51.684ZM12.8106 50.5148C11.3655 49.7644 10.4183 48.4577 10.0052 46.4808L8.6348 46.7672C9.11771 49.0783 10.2825 50.7796 12.1654 51.7572L12.8106 50.5148ZM10.0072 46.4907C9.60535 44.4197 9.396 40.7683 9.396 35.488H7.996C7.996 40.7677 8.20265 44.5403 8.63282 46.7573L10.0072 46.4907ZM9.396 35.488C9.396 30.2077 9.60535 26.5563 10.0072 24.4853L8.63282 24.2187C8.20265 26.4357 7.996 30.2083 7.996 35.488H9.396ZM10.0052 24.4952C10.4181 22.519 11.3634 21.2329 12.801 20.5141L12.175 19.2619C10.2846 20.2071 9.11786 21.897 8.6348 24.2088L10.0052 24.4952ZM12.8057 20.5117C14.3427 19.7288 17.0763 19.292 21.128 19.292V17.892C17.0517 17.892 14.0253 18.3192 12.1703 19.2643L12.8057 20.5117ZM21.128 19.292C25.1817 19.292 27.8954 19.7294 29.3974 20.5092L30.0426 19.2668C28.2166 18.3186 25.2023 17.892 21.128 17.892V19.292ZM29.4117 20.5165C30.8746 21.2341 31.8177 22.5293 32.2005 24.5314L33.5755 24.2686C33.1263 21.9187 31.9574 20.2059 30.0283 19.2595L29.4117 20.5165ZM32.2028 24.5432C32.6345 26.6091 32.86 30.2401 32.86 35.488H34.26C34.26 30.2399 34.0375 26.4789 33.5732 24.2568L32.2028 24.5432ZM32.86 35.488C32.86 40.7683 32.6345 44.415 32.2028 46.4808L33.5732 46.7672C34.0375 44.545 34.26 40.7677 34.26 35.488H32.86ZM32.2008 46.4907C31.819 48.4583 30.8762 49.7614 29.4023 50.5123L30.0378 51.7597C31.9558 50.7826 33.125 49.0777 33.5752 46.7573L32.2008 46.4907ZM29.407 50.5099C27.9013 51.2628 25.1828 51.684 21.128 51.684V53.084C25.2012 53.084 28.2108 52.6732 30.0331 51.7621L29.407 50.5099ZM21.128 49.244C22.614 49.244 23.8685 49.1916 24.8856 49.0841C25.8907 48.9779 26.7116 48.8134 27.3027 48.5655L26.7613 47.2745C26.3604 47.4426 25.7013 47.5901 24.7384 47.6919C23.7875 47.7924 22.586 47.844 21.128 47.844V49.244ZM27.3126 48.5613C28.6369 47.9819 29.3797 46.6899 29.6889 44.972L28.3111 44.724C28.0443 46.2061 27.4751 46.9621 26.7514 47.2787L27.3126 48.5613ZM29.6889 44.972C29.9897 43.301 30.132 40.1197 30.132 35.488H28.732C28.732 40.1363 28.5863 43.195 28.3111 44.724L29.6889 44.972ZM30.132 35.488C30.132 30.8563 29.9897 27.675 29.6889 26.004L28.3111 26.252C28.5863 27.781 28.732 30.8397 28.732 35.488H30.132ZM29.6889 26.004C29.38 24.2876 28.6351 22.9997 27.2955 22.4555L26.7685 23.7525C27.4769 24.0403 28.044 24.7684 28.3111 26.252L29.6889 26.004ZM27.3201 22.466C26.7244 22.197 25.8985 22.0191 24.8912 21.9045C23.8716 21.7884 22.6151 21.732 21.128 21.732V23.132C22.5849 23.132 23.7844 23.1876 24.7328 23.2955C25.6935 23.4049 26.3476 23.563 26.7439 23.742L27.3201 22.466ZM21.128 21.732C19.6408 21.732 18.3806 21.7884 17.3535 21.9044C16.3374 22.0191 15.5033 22.1967 14.8954 22.4627L15.4566 23.7453C15.8727 23.5633 16.5426 23.4049 17.5105 23.2956C18.4674 23.1875 19.6712 23.132 21.128 23.132V21.732ZM14.9125 22.4555C13.5729 22.9997 12.828 24.2876 12.5191 26.004L13.8969 26.252C14.164 24.7684 14.7311 24.0403 15.4395 23.7525L14.9125 22.4555ZM12.5191 26.004C12.2183 27.675 12.076 30.8563 12.076 35.488H13.476C13.476 30.8397 13.6217 27.781 13.8969 26.252L12.5191 26.004ZM12.076 35.488C12.076 40.1197 12.2183 43.301 12.5191 44.972L13.8969 44.724C13.6217 43.195 13.476 40.1363 13.476 35.488H12.076ZM12.5191 44.972C12.8283 46.6899 13.5711 47.9819 14.8954 48.5613L15.4566 47.2787C14.7329 46.9621 14.1637 46.2061 13.8969 44.724L12.5191 44.972ZM14.9125 48.5685C15.5159 48.8136 16.3451 48.9779 17.359 49.0842C18.3837 49.1916 19.6419 49.244 21.128 49.244V47.844C19.6701 47.844 18.4643 47.7924 17.505 47.6918C16.5349 47.5901 15.8601 47.4424 15.4395 47.2715L14.9125 48.5685ZM44.93 52.144L44.9901 51.4466L44.93 52.144ZM40.13 51.52H39.43C39.43 51.8561 39.6689 52.1447 39.999 52.2076L40.13 51.52ZM40.13 47.968L40.2008 47.2716C40.0039 47.2516 39.8076 47.3159 39.6607 47.4486C39.5138 47.5813 39.43 47.77 39.43 47.968H40.13ZM54.674 48.208L54.8041 48.8958C54.8101 48.8947 54.816 48.8935 54.8219 48.8922L54.674 48.208ZM57.41 46.624L57.9566 47.0613L57.9566 47.0613L57.41 46.624ZM56.93 38.512L56.453 39.0243C56.4591 39.03 56.4653 39.0355 56.4715 39.041L56.93 38.512ZM45.842 37.216H45.142C45.142 37.6026 45.4554 37.916 45.842 37.916V37.216ZM45.842 33.376V32.676C45.4554 32.676 45.142 32.9894 45.142 33.376H45.842ZM56.45 32.224L56.0383 31.6579L56.0383 31.6579L56.45 32.224ZM54.482 22.816L54.3341 23.5002C54.3411 23.5017 54.3481 23.5031 54.3552 23.5044L54.482 22.816ZM44.738 22.624L44.6843 21.9261L44.6833 21.9261L44.738 22.624ZM40.322 23.056H39.622C39.622 23.2564 39.7079 23.4472 39.858 23.5801C40.008 23.7129 40.2078 23.7751 40.4067 23.7508L40.322 23.056ZM40.322 19.456L40.1847 18.7696C39.8575 18.835 39.622 19.1223 39.622 19.456H40.322ZM44.978 18.832L45.0392 19.5293L45.0392 19.5293L44.978 18.832ZM57.266 19.552L57.0268 20.2099C57.0315 20.2116 57.0363 20.2133 57.0411 20.2149L57.266 19.552ZM61.058 22.384L60.4512 22.7329C60.4546 22.739 60.4582 22.7449 60.4618 22.7509L61.058 22.384ZM60.77 32.608L60.2152 32.1812L60.2135 32.1833L60.77 32.608ZM56.546 35.056L56.3954 34.3724C56.0745 34.4431 55.846 34.7274 55.846 35.056H56.546ZM56.546 35.248H55.846C55.846 35.5874 56.0895 35.8779 56.4237 35.9372L56.546 35.248ZM61.01 37.552L60.4734 38.0016L60.4805 38.0099L61.01 37.552ZM61.538 48.208L62.161 48.5271L62.161 48.5271L61.538 48.208ZM57.746 51.28L57.488 50.6293L57.4841 50.6309L57.746 51.28ZM49.922 51.684C48.4745 51.684 46.8311 51.6053 44.9901 51.4466L44.8699 52.8414C46.7409 53.0027 48.4255 53.084 49.922 53.084V51.684ZM44.9901 51.4466C43.15 51.288 41.5749 51.0826 40.261 50.8324L39.999 52.2076C41.3731 52.4694 42.998 52.68 44.8699 52.8414L44.9901 51.4466ZM40.83 51.52V47.968H39.43V51.52H40.83ZM40.0592 48.6644C43.8487 49.0498 47.042 49.244 49.634 49.244V47.844C47.106 47.844 43.9633 47.6542 40.2008 47.2716L40.0592 48.6644ZM49.634 49.244C51.8248 49.244 53.556 49.1319 54.8041 48.8958L54.5439 47.5202C53.424 47.7321 51.7952 47.844 49.634 47.844V49.244ZM54.8219 48.8922C56.1333 48.6086 57.1984 48.009 57.9566 47.0613L56.8634 46.1867C56.3416 46.839 55.5827 47.2954 54.5261 47.5238L54.8219 48.8922ZM57.9566 47.0613C58.7397 46.0825 59.07 44.6788 59.07 42.976H57.67C57.67 44.5372 57.3603 45.5655 56.8634 46.1867L57.9566 47.0613ZM59.07 42.976C59.07 40.7632 58.5804 39.016 57.3885 37.983L56.4715 39.041C57.1996 39.672 57.67 40.9008 57.67 42.976H59.07ZM57.407 37.9997C56.277 36.9476 54.4137 36.516 52.034 36.516V37.916C54.3263 37.916 55.727 38.3484 56.453 39.0243L57.407 37.9997ZM52.034 36.516H45.842V37.916H52.034V36.516ZM46.542 37.216V33.376H45.142V37.216H46.542ZM45.842 34.076H52.034V32.676H45.842V34.076ZM52.034 34.076C54.0066 34.076 55.6434 33.6762 56.8617 32.7901L56.0383 31.6579C55.1446 32.3078 53.8374 32.676 52.034 32.676V34.076ZM56.8617 32.7901C58.1857 31.8273 58.734 30.121 58.734 27.952H57.334C57.334 29.943 56.8263 31.0847 56.0383 31.6579L56.8617 32.7901ZM58.734 27.952C58.734 26.2359 58.4424 24.8339 57.73 23.884L56.61 24.724C57.0496 25.3101 57.334 26.3401 57.334 27.952H58.734ZM57.73 23.884C57.0208 22.9384 55.9463 22.374 54.6088 22.1276L54.3552 23.5044C55.4497 23.706 56.1672 24.1336 56.61 24.724L57.73 23.884ZM54.6299 22.1318C53.3708 21.8596 51.5341 21.732 49.154 21.732V23.132C51.5099 23.132 53.2252 23.2604 54.3341 23.5002L54.6299 22.1318ZM49.154 21.732C47.8517 21.732 46.3611 21.7971 44.6843 21.9261L44.7917 23.3219C46.4429 23.1949 47.8963 23.132 49.154 23.132V21.732ZM44.6833 21.9261C43.0435 22.0548 41.5613 22.1997 40.2373 22.3611L40.4067 23.7508C41.7067 23.5923 43.1685 23.4492 44.7927 23.3219L44.6833 21.9261ZM41.022 23.056V19.456H39.622V23.056H41.022ZM40.4593 20.1424C41.7064 19.893 43.2314 19.6879 45.0392 19.5293L44.9168 18.1347C43.0766 18.2961 41.4976 18.507 40.1847 18.7696L40.4593 20.1424ZM45.0392 19.5293C46.847 19.3707 48.4902 19.292 49.97 19.292V17.892C48.4418 17.892 46.757 17.9733 44.9168 18.1347L45.0392 19.5293ZM49.97 19.292C53.0388 19.292 55.3774 19.6101 57.0268 20.2099L57.5052 18.8941C55.6346 18.2139 53.1092 17.892 49.97 17.892V19.292ZM57.0411 20.2149C58.7185 20.784 59.8218 21.6383 60.4512 22.7329L61.6648 22.0351C60.8222 20.5697 59.3975 19.536 57.4909 18.8891L57.0411 20.2149ZM60.4618 22.7509C61.141 23.8545 61.51 25.3467 61.51 27.28H62.91C62.91 25.1813 62.511 23.4095 61.6542 22.0171L60.4618 22.7509ZM61.51 27.28C61.51 29.4985 61.0463 31.1008 60.2152 32.1812L61.3248 33.0348C62.4137 31.6192 62.91 29.6695 62.91 27.28H61.51ZM60.2135 32.1833C59.4102 33.236 58.1655 33.9824 56.3954 34.3724L56.6966 35.7396C58.7025 35.2976 60.2738 34.412 61.3265 33.0327L60.2135 32.1833ZM55.846 35.056V35.248H57.246V35.056H55.846ZM56.4237 35.9372C58.2958 36.2694 59.6157 36.9778 60.4734 38.0016L61.5466 37.1024C60.4203 35.7582 58.7642 34.9306 56.6683 34.5588L56.4237 35.9372ZM60.4805 38.0099C61.3433 39.0074 61.846 40.6764 61.846 43.168H63.246C63.246 40.5396 62.7247 38.4646 61.5395 37.0941L60.4805 38.0099ZM61.846 43.168C61.846 45.1458 61.5206 46.7065 60.915 47.8889L62.161 48.5271C62.8994 47.0855 63.246 45.2862 63.246 43.168H61.846ZM60.915 47.8889C60.3442 49.0033 59.2425 49.9335 57.488 50.6293L58.004 51.9307C59.9615 51.1545 61.3878 50.0367 62.161 48.5271L60.915 47.8889ZM57.4841 50.6309C55.7827 51.3174 53.2798 51.684 49.922 51.684V53.084C53.3482 53.084 56.0613 52.7146 58.0079 51.9291L57.4841 50.6309Z" fill="url(#paint1_linear)"/>
<defs>
<linearGradient id="paint0_linear" x1="67" y1="9" x2="14.6453" y2="70.2452" gradientUnits="userSpaceOnUse">
<stop stop-color="#2DC7ED"/>
<stop offset="1" stop-color="#538BF0" stop-opacity="0"/>
</linearGradient>
<linearGradient id="paint1_linear" x1="67" y1="9" x2="14.6453" y2="70.2452" gradientUnits="userSpaceOnUse">
<stop stop-color="#2DC7ED"/>
<stop offset="1" stop-color="#538BF0" stop-opacity="0"/>
</linearGradient>
</defs>
</svg>
