<svg width="72" height="72" viewBox="0 0 72 72" fill="none" xmlns="http://www.w3.org/2000/svg">
<path d="M21.128 52.384C17.064 52.384 14.184 51.968 12.488 51.136C10.824 50.272 9.768 48.768 9.32 46.624C8.904 44.48 8.696 40.768 8.696 35.488C8.696 30.208 8.904 26.496 9.32 24.352C9.768 22.208 10.824 20.72 12.488 19.888C14.184 19.024 17.064 18.592 21.128 18.592C25.192 18.592 28.056 19.024 29.72 19.888C31.416 20.72 32.472 22.224 32.888 24.4C33.336 26.544 33.56 30.24 33.56 35.488C33.56 40.768 33.336 44.48 32.888 46.624C32.472 48.768 31.416 50.272 29.72 51.136C28.056 51.968 25.192 52.384 21.128 52.384ZM21.128 48.544C24.072 48.544 26.04 48.336 27.032 47.92C28.056 47.472 28.712 46.448 29 44.848C29.288 43.248 29.432 40.128 29.432 35.488C29.432 30.848 29.288 27.728 29 26.128C28.712 24.528 28.056 23.52 27.032 23.104C26.04 22.656 24.072 22.432 21.128 22.432C18.184 22.432 16.2 22.656 15.176 23.104C14.152 23.52 13.496 24.528 13.208 26.128C12.92 27.728 12.776 30.848 12.776 35.488C12.776 40.128 12.92 43.248 13.208 44.848C13.496 46.448 14.152 47.472 15.176 47.92C16.2 48.336 18.184 48.544 21.128 48.544ZM44.594 48.112H63.122V52H40.61V48.064C40.61 45.312 40.706 43.312 40.898 42.064C41.122 40.784 41.618 39.744 42.386 38.944C43.154 38.112 44.434 37.312 46.226 36.544C49.682 35.104 52.594 33.904 54.962 32.944C56.146 32.464 57.01 32.016 57.554 31.6C58.13 31.152 58.514 30.624 58.706 30.016C58.93 29.408 59.042 28.576 59.042 27.52C59.042 26.016 58.802 24.912 58.322 24.208C57.874 23.504 57.09 23.04 55.97 22.816C54.882 22.56 53.186 22.432 50.882 22.432C48.354 22.432 45.154 22.64 41.282 23.056V19.456C42.626 19.2 44.322 18.992 46.37 18.832C48.418 18.672 50.338 18.592 52.13 18.592C54.53 18.592 56.498 18.784 58.034 19.168C59.57 19.52 60.802 20.32 61.73 21.568C62.658 22.784 63.122 24.624 63.122 27.088C63.122 28.976 62.93 30.496 62.546 31.648C62.162 32.8 61.538 33.728 60.674 34.432C59.842 35.104 58.674 35.76 57.17 36.4L47.234 40.48C46.114 40.896 45.394 41.456 45.074 42.16C44.882 42.608 44.754 43.12 44.69 43.696C44.626 44.272 44.594 45.04 44.594 46V48.112Z" fill="url(#paint0_linear)"/>
<path d="M12.488 51.136L12.1654 51.7572C12.1702 51.7597 12.1749 51.7621 12.1797 51.7645L12.488 51.136ZM9.32 46.624L8.63275 46.7573L8.6348 46.7672L9.32 46.624ZM9.32 24.352L8.63473 24.2088L8.63282 24.2187L9.32 24.352ZM12.488 19.888L12.8011 20.5141L12.8057 20.5117L12.488 19.888ZM29.72 19.888L29.3974 20.5092C29.4022 20.5117 29.4069 20.5141 29.4117 20.5165L29.72 19.888ZM32.888 24.4L32.2004 24.5315L32.2028 24.5432L32.888 24.4ZM32.888 46.624L32.2027 46.4808L32.2008 46.4907L32.888 46.624ZM29.72 51.136L30.0331 51.7621L30.0378 51.7597L29.72 51.136ZM27.032 47.92L27.3027 48.5656L27.3126 48.5613L27.032 47.92ZM29 44.848L28.3111 44.724L28.3111 44.724L29 44.848ZM29 26.128L28.3111 26.252L28.3111 26.252L29 26.128ZM27.032 23.104L26.7439 23.742C26.752 23.7456 26.7603 23.7492 26.7685 23.7525L27.032 23.104ZM15.176 23.104L15.4395 23.7525C15.4452 23.7502 15.4509 23.7478 15.4566 23.7453L15.176 23.104ZM13.208 44.848L12.5191 44.972L12.5191 44.972L13.208 44.848ZM15.176 47.92L14.8954 48.5613C14.9011 48.5638 14.9068 48.5662 14.9125 48.5685L15.176 47.92ZM21.128 51.684C17.0752 51.684 14.3369 51.2633 12.7963 50.5075L12.1797 51.7645C14.0311 52.6727 17.0528 53.084 21.128 53.084V51.684ZM12.8106 50.5148C11.3655 49.7644 10.4183 48.4577 10.0052 46.4808L8.6348 46.7672C9.11771 49.0783 10.2825 50.7796 12.1654 51.7572L12.8106 50.5148ZM10.0072 46.4907C9.60535 44.4197 9.396 40.7683 9.396 35.488H7.996C7.996 40.7677 8.20265 44.5403 8.63282 46.7573L10.0072 46.4907ZM9.396 35.488C9.396 30.2077 9.60535 26.5563 10.0072 24.4853L8.63282 24.2187C8.20265 26.4357 7.996 30.2083 7.996 35.488H9.396ZM10.0052 24.4952C10.4181 22.519 11.3634 21.2329 12.801 20.5141L12.175 19.2619C10.2846 20.2071 9.11786 21.897 8.6348 24.2088L10.0052 24.4952ZM12.8057 20.5117C14.3427 19.7288 17.0763 19.292 21.128 19.292V17.892C17.0517 17.892 14.0253 18.3192 12.1703 19.2643L12.8057 20.5117ZM21.128 19.292C25.1817 19.292 27.8954 19.7294 29.3974 20.5092L30.0426 19.2668C28.2166 18.3186 25.2023 17.892 21.128 17.892V19.292ZM29.4117 20.5165C30.8746 21.2341 31.8177 22.5293 32.2005 24.5314L33.5755 24.2686C33.1263 21.9187 31.9574 20.2059 30.0283 19.2595L29.4117 20.5165ZM32.2028 24.5432C32.6345 26.6091 32.86 30.2401 32.86 35.488H34.26C34.26 30.2399 34.0375 26.4789 33.5732 24.2568L32.2028 24.5432ZM32.86 35.488C32.86 40.7683 32.6345 44.415 32.2028 46.4808L33.5732 46.7672C34.0375 44.545 34.26 40.7677 34.26 35.488H32.86ZM32.2008 46.4907C31.819 48.4583 30.8762 49.7614 29.4023 50.5123L30.0378 51.7597C31.9558 50.7826 33.125 49.0777 33.5752 46.7573L32.2008 46.4907ZM29.407 50.5099C27.9013 51.2628 25.1828 51.684 21.128 51.684V53.084C25.2012 53.084 28.2108 52.6732 30.0331 51.7621L29.407 50.5099ZM21.128 49.244C22.614 49.244 23.8685 49.1916 24.8856 49.0841C25.8907 48.9779 26.7116 48.8134 27.3027 48.5655L26.7613 47.2745C26.3604 47.4426 25.7013 47.5901 24.7384 47.6919C23.7875 47.7924 22.586 47.844 21.128 47.844V49.244ZM27.3126 48.5613C28.6369 47.9819 29.3797 46.6899 29.6889 44.972L28.3111 44.724C28.0443 46.2061 27.4751 46.9621 26.7514 47.2787L27.3126 48.5613ZM29.6889 44.972C29.9897 43.301 30.132 40.1197 30.132 35.488H28.732C28.732 40.1363 28.5863 43.195 28.3111 44.724L29.6889 44.972ZM30.132 35.488C30.132 30.8563 29.9897 27.675 29.6889 26.004L28.3111 26.252C28.5863 27.781 28.732 30.8397 28.732 35.488H30.132ZM29.6889 26.004C29.38 24.2876 28.6351 22.9997 27.2955 22.4555L26.7685 23.7525C27.4769 24.0403 28.044 24.7684 28.3111 26.252L29.6889 26.004ZM27.3201 22.466C26.7244 22.197 25.8985 22.0191 24.8912 21.9045C23.8716 21.7884 22.6151 21.732 21.128 21.732V23.132C22.5849 23.132 23.7844 23.1876 24.7328 23.2955C25.6935 23.4049 26.3476 23.563 26.7439 23.742L27.3201 22.466ZM21.128 21.732C19.6408 21.732 18.3806 21.7884 17.3535 21.9044C16.3374 22.0191 15.5033 22.1967 14.8954 22.4627L15.4566 23.7453C15.8727 23.5633 16.5426 23.4049 17.5105 23.2956C18.4674 23.1875 19.6712 23.132 21.128 23.132V21.732ZM14.9125 22.4555C13.5729 22.9997 12.828 24.2876 12.5191 26.004L13.8969 26.252C14.164 24.7684 14.7311 24.0403 15.4395 23.7525L14.9125 22.4555ZM12.5191 26.004C12.2183 27.675 12.076 30.8563 12.076 35.488H13.476C13.476 30.8397 13.6217 27.781 13.8969 26.252L12.5191 26.004ZM12.076 35.488C12.076 40.1197 12.2183 43.301 12.5191 44.972L13.8969 44.724C13.6217 43.195 13.476 40.1363 13.476 35.488H12.076ZM12.5191 44.972C12.8283 46.6899 13.5711 47.9819 14.8954 48.5613L15.4566 47.2787C14.7329 46.9621 14.1637 46.2061 13.8969 44.724L12.5191 44.972ZM14.9125 48.5685C15.5159 48.8136 16.3451 48.9779 17.359 49.0842C18.3837 49.1916 19.6419 49.244 21.128 49.244V47.844C19.6701 47.844 18.4643 47.7924 17.505 47.6918C16.5349 47.5901 15.8601 47.4424 15.4395 47.2715L14.9125 48.5685ZM44.594 48.112H43.894C43.894 48.4986 44.2074 48.812 44.594 48.812V48.112ZM63.122 48.112H63.822C63.822 47.7254 63.5086 47.412 63.122 47.412V48.112ZM63.122 52V52.7C63.5086 52.7 63.822 52.3866 63.822 52H63.122ZM40.61 52H39.91C39.91 52.3866 40.2234 52.7 40.61 52.7V52ZM40.898 42.064L40.2085 41.9433C40.2077 41.9481 40.2069 41.9528 40.2061 41.9576L40.898 42.064ZM42.386 38.944L42.8911 39.4289L42.9004 39.4188L42.386 38.944ZM46.226 36.544L45.9568 35.8978L45.9503 35.9006L46.226 36.544ZM54.962 32.944L55.225 33.5927L55.225 33.5927L54.962 32.944ZM57.554 31.6L57.9792 32.1561L57.9838 32.1525L57.554 31.6ZM58.706 30.016L58.0492 29.774C58.0454 29.7843 58.0418 29.7947 58.0385 29.8052L58.706 30.016ZM58.322 24.208L57.7314 24.5838C57.7354 24.59 57.7395 24.5962 57.7436 24.6023L58.322 24.208ZM55.97 22.816L55.8097 23.4974C55.8173 23.4992 55.825 23.5009 55.8327 23.5024L55.97 22.816ZM41.282 23.056H40.582C40.582 23.2547 40.6664 23.444 40.8142 23.5767C40.962 23.7095 41.1592 23.7732 41.3568 23.752L41.282 23.056ZM41.282 19.456L41.151 18.7684C40.8209 18.8312 40.582 19.1199 40.582 19.456H41.282ZM46.37 18.832L46.4245 19.5299L46.4245 19.5299L46.37 18.832ZM58.034 19.168L57.8642 19.8472L57.8776 19.8503L58.034 19.168ZM61.73 21.568L61.1682 21.9857L61.1735 21.9927L61.73 21.568ZM62.546 31.648L61.8819 31.4266L61.8819 31.4266L62.546 31.648ZM60.674 34.432L61.1138 34.9766L61.1162 34.9747L60.674 34.432ZM57.17 36.4L57.4359 37.0476L57.4441 37.0441L57.17 36.4ZM47.234 40.48L47.4777 41.1362C47.4852 41.1334 47.4926 41.1305 47.4999 41.1275L47.234 40.48ZM45.074 42.16L44.4367 41.8703C44.4346 41.875 44.4326 41.8796 44.4306 41.8843L45.074 42.16ZM44.69 43.696L43.9943 43.6187L43.9943 43.6187L44.69 43.696ZM44.594 48.812H63.122V47.412H44.594V48.812ZM62.422 48.112V52H63.822V48.112H62.422ZM63.122 51.3H40.61V52.7H63.122V51.3ZM41.31 52V48.064H39.91V52H41.31ZM41.31 48.064C41.31 45.3162 41.4066 43.3618 41.5899 42.1704L40.2061 41.9576C40.0054 43.2622 39.91 45.3078 39.91 48.064H41.31ZM41.5875 42.1847C41.7918 41.0176 42.2349 40.1121 42.891 39.4288L41.881 38.4592C41.0011 39.3759 40.4522 40.5504 40.2085 41.9433L41.5875 42.1847ZM42.9004 39.4188C43.5698 38.6935 44.7441 37.9407 46.5017 37.1874L45.9503 35.9006C44.1239 36.6833 42.7382 37.5305 41.8716 38.4692L42.9004 39.4188ZM46.4952 37.1902C49.95 35.7507 52.8598 34.5516 55.225 33.5927L54.699 32.2953C52.3282 33.2564 49.414 34.4573 45.9568 35.8978L46.4952 37.1902ZM55.225 33.5927C56.4261 33.1058 57.3597 32.6298 57.9792 32.1561L57.1288 31.0439C56.6603 31.4022 55.8659 31.8222 54.699 32.2953L55.225 33.5927ZM57.9838 32.1525C58.6551 31.6304 59.1328 30.9891 59.3735 30.2268L58.0385 29.8052C57.8952 30.2589 57.6049 30.6736 57.1242 31.0475L57.9838 32.1525ZM59.3628 30.258C59.6277 29.5391 59.742 28.6133 59.742 27.52H58.342C58.342 28.5387 58.2323 29.2769 58.0492 29.774L59.3628 30.258ZM59.742 27.52C59.742 25.9699 59.4999 24.6931 58.9004 23.8137L57.7436 24.6023C58.1041 25.1309 58.342 26.0621 58.342 27.52H59.742ZM58.9126 23.8322C58.3288 22.9149 57.3433 22.3768 56.1073 22.1296L55.8327 23.5024C56.8367 23.7032 57.4192 24.0931 57.7314 24.5838L58.9126 23.8322ZM56.1303 22.1346C54.9594 21.8591 53.1957 21.732 50.882 21.732V23.132C53.1763 23.132 54.8046 23.2609 55.8097 23.4974L56.1303 22.1346ZM50.882 21.732C48.3195 21.732 45.0923 21.9426 41.2072 22.36L41.3568 23.752C45.2157 23.3374 48.3885 23.132 50.882 23.132V21.732ZM41.982 23.056V19.456H40.582V23.056H41.982ZM41.413 20.1436C42.7226 19.8942 44.3908 19.6888 46.4245 19.5299L46.3155 18.1341C44.2532 18.2952 42.5294 18.5058 41.151 18.7684L41.413 20.1436ZM46.4245 19.5299C48.4569 19.3711 50.3586 19.292 52.13 19.292V17.892C50.3174 17.892 48.3791 17.9729 46.3155 18.1341L46.4245 19.5299ZM52.13 19.292C54.4989 19.292 56.4044 19.4821 57.8642 19.8471L58.2038 18.4889C56.5916 18.0859 54.5611 17.892 52.13 17.892V19.292ZM57.8776 19.8503C59.2537 20.1657 60.3411 20.8732 61.1683 21.9857L62.2917 21.1503C61.2629 19.7668 59.8863 18.8743 58.1904 18.4857L57.8776 19.8503ZM61.1735 21.9927C61.9668 23.0321 62.422 24.6907 62.422 27.088H63.822C63.822 24.5573 63.3492 22.5359 62.2865 21.1433L61.1735 21.9927ZM62.422 27.088C62.422 28.9377 62.2327 30.3742 61.8819 31.4266L63.2101 31.8694C63.6273 30.6178 63.822 29.0143 63.822 27.088H62.422ZM61.8819 31.4266C61.536 32.4644 60.9837 33.2767 60.2318 33.8893L61.1162 34.9747C62.0923 34.1793 62.788 33.1356 63.2101 31.8694L61.8819 31.4266ZM60.2342 33.8874C59.4717 34.5033 58.3682 35.1294 56.8959 35.7559L57.4441 37.0441C58.9798 36.3906 60.2123 35.7047 61.1138 34.9766L60.2342 33.8874ZM56.9041 35.7525L46.9681 39.8325L47.4999 41.1275L57.4359 37.0475L56.9041 35.7525ZM46.9903 39.8238C45.7886 40.2701 44.867 40.9237 44.4367 41.8703L45.7113 42.4497C45.921 41.9883 46.4394 41.5219 47.4777 41.1362L46.9903 39.8238ZM44.4306 41.8843C44.207 42.4061 44.0645 42.9869 43.9943 43.6187L45.3857 43.7733C45.4435 43.2531 45.557 42.8099 45.7174 42.4357L44.4306 41.8843ZM43.9943 43.6187C43.9262 44.2315 43.894 45.0285 43.894 46H45.294C45.294 45.0515 45.3258 44.3125 45.3857 43.7733L43.9943 43.6187ZM43.894 46V48.112H45.294V46H43.894Z" fill="url(#paint1_linear)"/>
<defs>
<linearGradient id="paint0_linear" x1="67" y1="9" x2="14.6453" y2="70.2452" gradientUnits="userSpaceOnUse">
<stop stop-color="#2DC7ED"/>
<stop offset="1" stop-color="#538BF0" stop-opacity="0"/>
</linearGradient>
<linearGradient id="paint1_linear" x1="67" y1="9" x2="14.6453" y2="70.2452" gradientUnits="userSpaceOnUse">
<stop stop-color="#2DC7ED"/>
<stop offset="1" stop-color="#538BF0" stop-opacity="0"/>
</linearGradient>
</defs>
</svg>
