<svg width="32" height="32" viewBox="0 0 32 32" fill="none" xmlns="http://www.w3.org/2000/svg">
<path d="M16.4899 7.89358L17.584 13.2467C17.7044 13.8355 18.1645 14.2956 18.7533 14.416L24.1064 15.5101C24.6396 15.6191 24.6396 16.3809 24.1064 16.4899L18.7533 17.584C18.1645 17.7044 17.7044 18.1645 17.584 18.7533L16.4899 24.1064C16.3809 24.6396 15.6191 24.6396 15.5101 24.1064L14.416 18.7533C14.2956 18.1645 13.8355 17.7044 13.2467 17.584L7.89359 16.4899C7.36041 16.3809 7.36042 15.6191 7.89358 15.5101L13.2467 14.416C13.8355 14.2956 14.2956 13.8355 14.416 13.2467L15.5101 7.89359C15.6191 7.36041 16.3809 7.36042 16.4899 7.89358Z" fill="url(#paint0_linear)" stroke="url(#paint1_linear)"/>
<defs>
<linearGradient id="paint0_linear" x1="29" y1="3" x2="3" y2="29" gradientUnits="userSpaceOnUse">
<stop stop-color="#2DC7ED"/>
<stop offset="1" stop-color="#538BF0" stop-opacity="0"/>
</linearGradient>
<linearGradient id="paint1_linear" x1="29" y1="3" x2="3" y2="29" gradientUnits="userSpaceOnUse">
<stop stop-color="#2DC7ED"/>
<stop offset="1" stop-color="#538BF0" stop-opacity="0"/>
</linearGradient>
</defs>
</svg>
