<svg width="72" height="72" viewBox="0 0 72 72" fill="none" xmlns="http://www.w3.org/2000/svg">
<path d="M27.128 52.384C23.064 52.384 20.184 51.968 18.488 51.136C16.824 50.272 15.768 48.768 15.32 46.624C14.904 44.48 14.696 40.768 14.696 35.488C14.696 30.208 14.904 26.496 15.32 24.352C15.768 22.208 16.824 20.72 18.488 19.888C20.184 19.024 23.064 18.592 27.128 18.592C31.192 18.592 34.056 19.024 35.72 19.888C37.416 20.72 38.472 22.224 38.888 24.4C39.336 26.544 39.56 30.24 39.56 35.488C39.56 40.768 39.336 44.48 38.888 46.624C38.472 48.768 37.416 50.272 35.72 51.136C34.056 51.968 31.192 52.384 27.128 52.384ZM27.128 48.544C30.072 48.544 32.04 48.336 33.032 47.92C34.056 47.472 34.712 46.448 35 44.848C35.288 43.248 35.432 40.128 35.432 35.488C35.432 30.848 35.288 27.728 35 26.128C34.712 24.528 34.056 23.52 33.032 23.104C32.04 22.656 30.072 22.432 27.128 22.432C24.184 22.432 22.2 22.656 21.176 23.104C20.152 23.52 19.496 24.528 19.208 26.128C18.92 27.728 18.776 30.848 18.776 35.488C18.776 40.128 18.92 43.248 19.208 44.848C19.496 46.448 20.152 47.472 21.176 47.92C22.2 48.336 24.184 48.544 27.128 48.544ZM51.89 52V24.064L45.074 27.328V23.344L53.09 18.976H56.018V52H51.89Z" fill="url(#paint0_linear)"/>
<path d="M18.488 51.136L18.1654 51.7572C18.1702 51.7597 18.1749 51.7621 18.1797 51.7645L18.488 51.136ZM15.32 46.624L14.6327 46.7573L14.6348 46.7672L15.32 46.624ZM15.32 24.352L14.6347 24.2088L14.6328 24.2187L15.32 24.352ZM18.488 19.888L18.8011 20.5141L18.8057 20.5117L18.488 19.888ZM35.72 19.888L35.3974 20.5092C35.4022 20.5117 35.4069 20.5141 35.4117 20.5165L35.72 19.888ZM38.888 24.4L38.2004 24.5315L38.2028 24.5432L38.888 24.4ZM38.888 46.624L38.2027 46.4808L38.2008 46.4907L38.888 46.624ZM35.72 51.136L36.0331 51.7621L36.0378 51.7597L35.72 51.136ZM33.032 47.92L33.3027 48.5656L33.3126 48.5613L33.032 47.92ZM35 44.848L34.3111 44.724L34.3111 44.724L35 44.848ZM35 26.128L34.3111 26.252L34.3111 26.252L35 26.128ZM33.032 23.104L32.7439 23.742C32.752 23.7456 32.7603 23.7492 32.7685 23.7525L33.032 23.104ZM21.176 23.104L21.4395 23.7525C21.4452 23.7502 21.4509 23.7478 21.4566 23.7453L21.176 23.104ZM19.208 44.848L18.5191 44.972L18.5191 44.972L19.208 44.848ZM21.176 47.92L20.8954 48.5613C20.9011 48.5638 20.9068 48.5662 20.9125 48.5685L21.176 47.92ZM27.128 51.684C23.0752 51.684 20.3369 51.2633 18.7963 50.5075L18.1797 51.7645C20.0311 52.6727 23.0528 53.084 27.128 53.084V51.684ZM18.8106 50.5148C17.3655 49.7644 16.4183 48.4577 16.0052 46.4808L14.6348 46.7672C15.1177 49.0783 16.2825 50.7796 18.1654 51.7572L18.8106 50.5148ZM16.0072 46.4907C15.6053 44.4197 15.396 40.7683 15.396 35.488H13.996C13.996 40.7677 14.2027 44.5403 14.6328 46.7573L16.0072 46.4907ZM15.396 35.488C15.396 30.2077 15.6053 26.5563 16.0072 24.4853L14.6328 24.2187C14.2027 26.4357 13.996 30.2083 13.996 35.488H15.396ZM16.0052 24.4952C16.4181 22.519 17.3634 21.2329 18.801 20.5141L18.175 19.2619C16.2846 20.2071 15.1179 21.897 14.6348 24.2088L16.0052 24.4952ZM18.8057 20.5117C20.3427 19.7288 23.0763 19.292 27.128 19.292V17.892C23.0517 17.892 20.0253 18.3192 18.1703 19.2643L18.8057 20.5117ZM27.128 19.292C31.1817 19.292 33.8954 19.7294 35.3974 20.5092L36.0426 19.2668C34.2166 18.3186 31.2023 17.892 27.128 17.892V19.292ZM35.4117 20.5165C36.8746 21.2341 37.8177 22.5293 38.2005 24.5314L39.5755 24.2686C39.1263 21.9187 37.9574 20.2059 36.0283 19.2595L35.4117 20.5165ZM38.2028 24.5432C38.6345 26.6091 38.86 30.2401 38.86 35.488H40.26C40.26 30.2399 40.0375 26.4789 39.5732 24.2568L38.2028 24.5432ZM38.86 35.488C38.86 40.7683 38.6345 44.415 38.2028 46.4808L39.5732 46.7672C40.0375 44.545 40.26 40.7677 40.26 35.488H38.86ZM38.2008 46.4907C37.819 48.4583 36.8762 49.7614 35.4023 50.5123L36.0378 51.7597C37.9558 50.7826 39.125 49.0777 39.5752 46.7573L38.2008 46.4907ZM35.407 50.5099C33.9013 51.2628 31.1828 51.684 27.128 51.684V53.084C31.2012 53.084 34.2108 52.6732 36.0331 51.7621L35.407 50.5099ZM27.128 49.244C28.614 49.244 29.8685 49.1916 30.8856 49.0841C31.8907 48.9779 32.7116 48.8134 33.3027 48.5655L32.7613 47.2745C32.3604 47.4426 31.7013 47.5901 30.7384 47.6919C29.7875 47.7924 28.586 47.844 27.128 47.844V49.244ZM33.3126 48.5613C34.6369 47.9819 35.3797 46.6899 35.6889 44.972L34.3111 44.724C34.0443 46.2061 33.4751 46.9621 32.7514 47.2787L33.3126 48.5613ZM35.6889 44.972C35.9897 43.301 36.132 40.1197 36.132 35.488H34.732C34.732 40.1363 34.5863 43.195 34.3111 44.724L35.6889 44.972ZM36.132 35.488C36.132 30.8563 35.9897 27.675 35.6889 26.004L34.3111 26.252C34.5863 27.781 34.732 30.8397 34.732 35.488H36.132ZM35.6889 26.004C35.38 24.2876 34.6351 22.9997 33.2955 22.4555L32.7685 23.7525C33.4769 24.0403 34.044 24.7684 34.3111 26.252L35.6889 26.004ZM33.3201 22.466C32.7244 22.197 31.8985 22.0191 30.8912 21.9045C29.8716 21.7884 28.6151 21.732 27.128 21.732V23.132C28.5849 23.132 29.7844 23.1876 30.7328 23.2955C31.6935 23.4049 32.3476 23.563 32.7439 23.742L33.3201 22.466ZM27.128 21.732C25.6408 21.732 24.3806 21.7884 23.3535 21.9044C22.3374 22.0191 21.5033 22.1967 20.8954 22.4627L21.4566 23.7453C21.8727 23.5633 22.5426 23.4049 23.5105 23.2956C24.4674 23.1875 25.6712 23.132 27.128 23.132V21.732ZM20.9125 22.4555C19.5729 22.9997 18.828 24.2876 18.5191 26.004L19.8969 26.252C20.164 24.7684 20.7311 24.0403 21.4395 23.7525L20.9125 22.4555ZM18.5191 26.004C18.2183 27.675 18.076 30.8563 18.076 35.488H19.476C19.476 30.8397 19.6217 27.781 19.8969 26.252L18.5191 26.004ZM18.076 35.488C18.076 40.1197 18.2183 43.301 18.5191 44.972L19.8969 44.724C19.6217 43.195 19.476 40.1363 19.476 35.488H18.076ZM18.5191 44.972C18.8283 46.6899 19.5711 47.9819 20.8954 48.5613L21.4566 47.2787C20.7329 46.9621 20.1637 46.2061 19.8969 44.724L18.5191 44.972ZM20.9125 48.5685C21.5159 48.8136 22.3451 48.9779 23.359 49.0842C24.3837 49.1916 25.6419 49.244 27.128 49.244V47.844C25.6701 47.844 24.4643 47.7924 23.505 47.6918C22.5349 47.5901 21.8601 47.4424 21.4395 47.2715L20.9125 48.5685ZM51.89 52H51.19C51.19 52.3866 51.5034 52.7 51.89 52.7V52ZM51.89 24.064H52.59C52.59 23.8235 52.4666 23.5999 52.2631 23.4717C52.0596 23.3435 51.8046 23.3288 51.5877 23.4327L51.89 24.064ZM45.074 27.328H44.374C44.374 27.5685 44.4974 27.7921 44.7009 27.9203C44.9044 28.0485 45.1594 28.0632 45.3763 27.9593L45.074 27.328ZM45.074 23.344L44.7391 22.7293C44.514 22.852 44.374 23.0877 44.374 23.344H45.074ZM53.09 18.976V18.276C52.973 18.276 52.8578 18.3053 52.7551 18.3613L53.09 18.976ZM56.018 18.976H56.718C56.718 18.5894 56.4046 18.276 56.018 18.276V18.976ZM56.018 52V52.7C56.4046 52.7 56.718 52.3866 56.718 52H56.018ZM52.59 52V24.064H51.19V52H52.59ZM51.5877 23.4327L44.7717 26.6967L45.3763 27.9593L52.1923 24.6953L51.5877 23.4327ZM45.774 27.328V23.344H44.374V27.328H45.774ZM45.4089 23.9587L53.4249 19.5907L52.7551 18.3613L44.7391 22.7293L45.4089 23.9587ZM53.09 19.676H56.018V18.276H53.09V19.676ZM55.318 18.976V52H56.718V18.976H55.318ZM56.018 51.3H51.89V52.7H56.018V51.3Z" fill="url(#paint1_linear)"/>
<defs>
<linearGradient id="paint0_linear" x1="62" y1="9" x2="9.03919" y2="59.9623" gradientUnits="userSpaceOnUse">
<stop stop-color="#2DC7ED"/>
<stop offset="1" stop-color="#538BF0" stop-opacity="0"/>
</linearGradient>
<linearGradient id="paint1_linear" x1="62" y1="9" x2="9.03919" y2="59.9623" gradientUnits="userSpaceOnUse">
<stop stop-color="#2DC7ED"/>
<stop offset="1" stop-color="#538BF0" stop-opacity="0"/>
</linearGradient>
</defs>
</svg>
