<svg width="72" height="72" viewBox="0 0 72 72" fill="none" xmlns="http://www.w3.org/2000/svg">
<path class="letter-ny1" d="M34 59.25H18C17.5074 59.25 17.2134 59.2484 17.0027 59.2201C16.9061 59.2071 16.8577 59.1918 16.836 59.1828C16.8309 59.1808 16.8276 59.1791 16.8257 59.1781L16.8232 59.1768L16.8219 59.1743C16.8209 59.1724 16.8192 59.1691 16.8172 59.164C16.8082 59.1423 16.7929 59.0939 16.7799 58.9973C16.7516 58.7866 16.75 58.4926 16.75 58V18.4359C16.75 17.2727 16.7517 16.4817 16.8249 15.9456C16.8577 15.7055 16.8972 15.5777 16.9247 15.5133C16.9874 15.5445 17.1003 15.6162 17.2808 15.7778C17.6841 16.1387 18.1981 16.74 18.9519 17.6257L34.9519 36.4257C35.0763 36.5718 35.1452 36.6534 35.1931 36.7182C35.2144 36.747 35.2249 36.7639 35.2301 36.7728C35.2325 36.7771 35.2337 36.7795 35.2341 36.7805L35.2346 36.7816L35.235 36.7828C35.2353 36.7838 35.2359 36.7864 35.2368 36.7912C35.2387 36.8014 35.2416 36.8211 35.2441 36.8568C35.2496 36.9372 35.25 37.044 35.25 37.2359V58C35.25 58.4926 35.2484 58.7866 35.2201 58.9973C35.2071 59.0939 35.1918 59.1423 35.1828 59.164C35.1808 59.1691 35.1791 59.1724 35.1781 59.1743L35.1768 59.1768L35.1743 59.1781C35.1737 59.1785 35.1729 59.1788 35.172 59.1793C35.1701 59.1802 35.1675 59.1814 35.164 59.1828C35.1423 59.1918 35.0939 59.2071 34.9973 59.2201C34.7866 59.2484 34.4926 59.25 34 59.25ZM16.9586 15.4545C16.9588 15.455 16.9565 15.4582 16.9513 15.4626C16.9558 15.4562 16.9584 15.454 16.9586 15.4545ZM16.8716 15.4919C16.8648 15.492 16.861 15.491 16.8608 15.4905C16.8606 15.49 16.8641 15.49 16.8716 15.4919Z" fill="url(#paint0_linear)" stroke="url(#paint1_linear)" stroke-width="1.5"/>
<path class="letter-ny2" d="M38 13.75H54C54.4926 13.75 54.7866 13.7516 54.9973 13.7799C55.0939 13.7929 55.1423 13.8082 55.164 13.8172C55.1691 13.8192 55.1724 13.8209 55.1743 13.8219L55.1768 13.8232L55.1781 13.8257C55.1791 13.8276 55.1808 13.8309 55.1828 13.836C55.1918 13.8577 55.2071 13.9061 55.2201 14.0027C55.2484 14.2134 55.25 14.5074 55.25 15V54.5641C55.25 55.7273 55.2483 56.5183 55.1751 57.0544C55.1423 57.2945 55.1028 57.4223 55.0753 57.4867C55.0126 57.4555 54.8997 57.3838 54.7192 57.2222C54.3159 56.8613 53.8019 56.26 53.0481 55.3743L37.0481 36.5743C36.9237 36.4282 36.8548 36.3466 36.8069 36.2818C36.7856 36.253 36.7751 36.2361 36.7699 36.2272C36.7675 36.2229 36.7663 36.2205 36.7659 36.2195L36.7654 36.2184L36.765 36.2172C36.7647 36.2162 36.7641 36.2136 36.7632 36.2088C36.7613 36.1986 36.7584 36.1789 36.7559 36.1432C36.7504 36.0628 36.75 35.956 36.75 35.7641V15C36.75 14.5074 36.7516 14.2134 36.7799 14.0027C36.7929 13.9061 36.8082 13.8577 36.8172 13.836C36.8192 13.8309 36.8209 13.8276 36.8219 13.8257L36.8232 13.8232L36.8257 13.8219C36.8263 13.8215 36.8271 13.8212 36.828 13.8207C36.8299 13.8198 36.8325 13.8186 36.836 13.8172C36.8577 13.8082 36.9061 13.7929 37.0027 13.7799C37.2134 13.7516 37.5074 13.75 38 13.75ZM55.0414 57.5455C55.0412 57.545 55.0435 57.5418 55.0487 57.5374C55.0442 57.5438 55.0416 57.546 55.0414 57.5455ZM55.1284 57.5081C55.1352 57.508 55.139 57.509 55.1392 57.5095C55.1394 57.51 55.1359 57.51 55.1284 57.5081Z" fill="url(#paint2_linear)" stroke="url(#paint3_linear)" stroke-width="1.5"/>
<defs>
<linearGradient id="paint0_linear" x1="26" y1="13" x2="26" y2="60" gradientUnits="userSpaceOnUse">
<stop stop-color="#FDFDFD" stop-opacity="0"/>
<stop offset="1" stop-color="#FDFDFD"/>
</linearGradient>
<linearGradient id="paint1_linear" x1="26" y1="13" x2="26" y2="60" gradientUnits="userSpaceOnUse">
<stop stop-color="#FDFDFD" stop-opacity="0"/>
<stop offset="1" stop-color="#FDFDFD"/>
</linearGradient>
<linearGradient id="paint2_linear" x1="36" y1="60" x2="69.8674" y2="45.5883" gradientUnits="userSpaceOnUse">
<stop stop-color="#2DC7ED"/>
<stop offset="1" stop-color="#538BF0" stop-opacity="0"/>
</linearGradient>
<linearGradient id="paint3_linear" x1="36" y1="60" x2="69.8674" y2="45.5883" gradientUnits="userSpaceOnUse">
<stop stop-color="#2DC7ED"/>
<stop offset="1" stop-color="#538BF0" stop-opacity="0"/>
</linearGradient>
</defs>
</svg>
